<svg preserveAspectRatio="none" width="100%" height="100%" overflow="visible" style="display: block;" viewBox="0 0 20 16" fill="none" xmlns="http://www.w3.org/2000/svg">
<g id="icon">
<path fill-rule="evenodd" clip-rule="evenodd" d="M2.45112 6.73208C2.09854 7.41521 2 7.8672 2 8C2 8.1328 2.09854 8.58479 2.45112 9.26792C2.78355 9.91199 3.2905 10.6607 3.97139 11.37C5.32918 12.7843 7.33268 14 10 14C12.6673 14 14.6708 12.7843 16.0286 11.37C16.7095 10.6607 17.2165 9.91199 17.5489 9.26792C17.9015 8.58479 18 8.1328 18 8C18 7.8672 17.9015 7.41521 17.5489 6.73208C17.2165 6.08801 16.7095 5.33929 16.0286 4.63003C14.6708 3.21567 12.6673 2 10 2C7.33268 2 5.32918 3.21567 3.97139 4.63003C3.2905 5.33929 2.78355 6.08801 2.45112 6.73208ZM2.52861 3.24497C4.17082 1.53433 6.66732 0 10 0C13.3327 0 15.8292 1.53433 17.4714 3.24497C18.2905 4.09821 18.9085 5.00574 19.3261 5.81479C19.7235 6.58479 20 7.3828 20 8C20 8.6172 19.7235 9.41521 19.3261 10.1852C18.9085 10.9943 18.2905 11.9018 17.4714 12.755C15.8292 14.4657 13.3327 16 10 16C6.66732 16 4.17082 14.4657 2.52861 12.755C1.7095 11.9018 1.09145 10.9943 0.673879 10.1852C0.27646 9.41521 0 8.6172 0 8C0 7.3828 0.27646 6.58479 0.673879 5.81479C1.09145 5.00574 1.7095 4.09821 2.52861 3.24497Z" fill="var(--fill-0, #002749)"/>
<path d="M10 12C12.2091 12 14 10.2091 14 8C14 7.59005 13.9383 7.19449 13.8238 6.82212C13.5102 7.51664 12.8115 8 12 8C10.8954 8 10 7.10457 10 6C10 5.18846 10.4834 4.48982 11.1779 4.17624C10.8055 4.06167 10.41 4 10 4C7.79086 4 6 5.79086 6 8C6 10.2091 7.79086 12 10 12Z" fill="var(--fill-0, #002749)"/>
</g>
</svg>
