<svg preserveAspectRatio="none" width="100%" height="100%" overflow="visible" style="display: block;" viewBox="0 0 18.7417 18" fill="none" xmlns="http://www.w3.org/2000/svg">
<path id="icon" d="M0.275 8.725C0.0916667 8.525 0 8.2875 0 8.0125C0 7.7375 0.0916667 7.5 0.275 7.3L3.075 4.5L2 3.425L1.7 3.725C1.5 3.925 1.2625 4.025 0.9875 4.025C0.7125 4.025 0.475 3.925 0.275 3.725C0.0916667 3.525 0 3.2875 0 3.0125C0 2.7375 0.0916667 2.50833 0.275 2.325L2.275 0.325C2.475 0.125 2.7125 0.025 2.9875 0.025C3.2625 0.025 3.5 0.125 3.7 0.325C3.9 0.508333 4 0.741667 4 1.025C4 1.30833 3.9 1.54167 3.7 1.725L3.4 2.025L4.475 3.1L7.275 0.3C7.475 0.1 7.7125 0 7.9875 0C8.2625 0 8.5 0.1 8.7 0.3C8.9 0.5 9 0.7375 9 1.0125C9 1.2875 8.9 1.525 8.7 1.725L8.025 2.375L9.575 3.925L6.75 6.725C6.56667 6.925 6.475 7.1625 6.475 7.4375C6.475 7.7125 6.56667 7.95 6.75 8.15C6.95 8.35 7.1875 8.45 7.4625 8.45C7.7375 8.45 7.975 8.35 8.175 8.15L10.975 5.325L12.5 6.825L9.675 9.65C9.475 9.85 9.375 10.0875 9.375 10.3625C9.375 10.6375 9.475 10.875 9.675 11.075C9.85833 11.2583 10.0875 11.3458 10.3625 11.3375C10.6375 11.3292 10.875 11.2333 11.075 11.05L13.875 8.225L15.4 9.75C15.7833 10.1333 15.975 10.6042 15.975 11.1625C15.975 11.7208 15.7833 12.1917 15.4 12.575L14.7 13.3L18.575 17.15C18.7417 17.3167 18.7833 17.5 18.7 17.7C18.6167 17.9 18.4583 18 18.225 18H17.2C17 18 16.8042 17.9583 16.6125 17.875C16.4208 17.7917 16.2583 17.6833 16.125 17.55L13.275 14.7L12.575 15.425C12.1917 15.8083 11.7208 16 11.1625 16C10.6042 16 10.1333 15.8083 9.75 15.425L2.375 8.05L1.7 8.725C1.5 8.90833 1.2625 9 0.9875 9C0.7125 9 0.475 8.90833 0.275 8.725Z" fill="var(--fill-0, #002749)"/>
</svg>
