<svg preserveAspectRatio="none" width="100%" height="100%" overflow="visible" style="display: block;" viewBox="0 0 16 20" fill="none" xmlns="http://www.w3.org/2000/svg">
<path id="icon" fill-rule="evenodd" clip-rule="evenodd" d="M8 0C10.2091 0 12 1.79086 12 4H14C15.1046 4 16 4.89543 16 6V18C16 19.1046 15.1046 20 14 20H2C0.895431 20 0 19.1046 0 18V6C0 4.89543 0.895431 4 2 4H4C4 1.79086 5.79086 0 8 0ZM4 6V8C4 8.55228 4.44772 9 5 9C5.55228 9 6 8.55228 6 8V6H4ZM10 6V8C10 8.55228 10.4477 9 11 9C11.5523 9 12 8.55228 12 8V6H10ZM8 2C6.89543 2 6 2.89543 6 4H10C10 2.89543 9.10457 2 8 2Z" fill="var(--fill-0, #002749)"/>
</svg>
