<svg preserveAspectRatio="none" width="100%" height="100%" overflow="visible" style="display: block;" viewBox="0 0 17 20" fill="none" xmlns="http://www.w3.org/2000/svg">
<path id="icon" d="M8.5 0C13.1944 0 17 3.80558 17 8.5C17 11.9521 15.0423 14.8164 13.1533 16.752C12.1973 17.7316 11.2252 18.5088 10.4531 19.0449C10.0676 19.3126 9.72264 19.5262 9.44629 19.6777C9.44629 19.6777 8.89039 20 8.5 20C8.10961 20 7.55371 19.6777 7.55371 19.6777C7.27736 19.5262 6.93238 19.3126 6.54688 19.0449C5.77483 18.5088 4.80272 17.7316 3.84668 16.752C1.95772 14.8164 0 11.9521 0 8.5C0 3.80558 3.80558 0 8.5 0ZM8.5 7.83301C6.75 7.83301 5 9.4669 5 11.3164C5.00015 13.0834 6.75008 13.667 8.5 13.667C10.2499 13.667 11.9998 13.0834 12 11.3164C12 9.54925 10.25 7.83301 8.5 7.83301ZM3.97949 6.66699C3.25462 6.66699 2.66699 7.25462 2.66699 7.97949C2.66717 8.70422 3.25473 9.29199 3.97949 9.29199C4.70411 9.29182 5.29182 8.70411 5.29199 7.97949C5.29199 7.25473 4.70422 6.66717 3.97949 6.66699ZM13.0205 6.66699C12.2958 6.66717 11.708 7.25473 11.708 7.97949C11.7082 8.70411 12.2959 9.29182 13.0205 9.29199C13.7453 9.29199 14.3328 8.70422 14.333 7.97949C14.333 7.25462 13.7454 6.66699 13.0205 6.66699ZM6.7207 4.33301C5.99605 4.33314 5.40838 4.92087 5.4082 5.64551C5.4082 6.3703 5.99594 6.95788 6.7207 6.95801C7.44558 6.95801 8.0332 6.37038 8.0332 5.64551C8.03303 4.92078 7.44547 4.33301 6.7207 4.33301ZM10.2793 4.33301C9.55453 4.33301 8.96697 4.92078 8.9668 5.64551C8.9668 6.37038 9.55442 6.95801 10.2793 6.95801C11.0041 6.95788 11.5918 6.3703 11.5918 5.64551C11.5916 4.92086 11.004 4.33314 10.2793 4.33301Z" fill="var(--fill-0, #002749)"/>
</svg>
