<svg preserveAspectRatio="none" width="100%" height="100%" overflow="visible" style="display: block;" viewBox="0 0 20.5038 20.4969" fill="none" xmlns="http://www.w3.org/2000/svg">
<path id="icon" fill-rule="evenodd" clip-rule="evenodd" d="M3.43346 2.92864C7.3387 -0.97611 13.67 -0.976315 17.5751 2.92864C21.4801 6.83385 21.4801 13.166 17.5751 17.0712C14.5394 20.1067 10.038 20.7812 6.34948 19.0976L1.25964 20.4618C0.516278 20.6609 -0.163828 19.9806 0.0350262 19.2372L1.40026 14.1415C-0.276042 10.4553 0.40134 5.96076 3.43346 2.92864ZM6.00378 11.9999C5.45149 11.9999 5.00378 12.4476 5.00378 12.9999C5.00381 13.5522 5.45151 13.9999 6.00378 13.9999H13.5038C14.056 13.9998 14.5037 13.5521 14.5038 12.9999C14.5038 12.4477 14.056 12 13.5038 11.9999H6.00378ZM6.00378 6.99993C5.45149 6.99993 5.00378 7.44764 5.00378 7.99993C5.00381 8.55219 5.45151 8.99993 6.00378 8.99993H15.5038C16.056 8.99985 16.5037 8.55214 16.5038 7.99993C16.5038 7.44769 16.056 7.00001 15.5038 6.99993H6.00378Z" fill="var(--fill-0, #002749)"/>
</svg>
