<svg preserveAspectRatio="none" width="100%" height="100%" overflow="visible" style="display: block;" viewBox="0 0 20.9996 20" fill="none" xmlns="http://www.w3.org/2000/svg">
<path id="icon" fill-rule="evenodd" clip-rule="evenodd" d="M10.4998 0C10.8798 0 11.2275 0.215167 11.3963 0.555664L14.0984 6.01074L20.1434 6.88574C20.5204 6.94043 20.8335 7.20496 20.951 7.56738C21.0684 7.92983 20.9694 8.32737 20.6961 8.59277L16.324 12.8369L17.3563 18.8301C17.4208 19.205 17.2673 19.5846 16.9598 19.8086C16.6522 20.0325 16.244 20.0622 15.907 19.8857L10.4998 17.0537L5.09259 19.8857C4.75559 20.0622 4.34739 20.0325 4.03985 19.8086C3.73229 19.5846 3.57881 19.205 3.64337 18.8301L4.67559 12.8369L0.303521 8.59277C0.0301831 8.32737 -0.0687272 7.92983 0.0486386 7.56738C0.166119 7.20496 0.479229 6.94043 0.856256 6.88574L6.90118 6.01074L9.60333 0.555664C9.77209 0.215167 10.1198 0 10.4998 0Z" fill="var(--fill-0, #002749)"/>
</svg>
