<svg preserveAspectRatio="none" width="100%" height="100%" overflow="visible" style="display: block;" viewBox="0 0 18.0036 19.1581" fill="none" xmlns="http://www.w3.org/2000/svg">
<g id="icon">
<path fill-rule="evenodd" clip-rule="evenodd" d="M16 0C17.1046 0 18 0.895431 18 2V11.0947C17.2468 10.9297 16.4696 10.9532 15.668 11.168C14.3362 11.5249 13.3244 12.3021 12.6328 13.5C11.9411 14.698 11.774 15.963 12.1309 17.2949C12.1968 17.5409 12.2774 17.7758 12.3721 18H2C0.895431 18 8.05332e-09 17.1046 0 16V2C0 0.895431 0.895431 8.05319e-09 2 0H16ZM9 4C8.17157 4 7.5 4.67157 7.5 5.5V7.5H5.5C4.67157 7.5 4 8.17157 4 9C4 9.82843 4.67157 10.5 5.5 10.5H7.5V12.5C7.5 13.3284 8.17157 14 9 14C9.82843 14 10.5 13.3284 10.5 12.5V10.5H12.5C13.3284 10.5 14 9.82843 14 9C14 8.17157 13.3284 7.5 12.5 7.5H10.5V5.5C10.5 4.67157 9.82843 4 9 4Z" fill="var(--fill-0, #002749)"/>
<path fill-rule="evenodd" clip-rule="evenodd" d="M17.9972 18.7333C17.9749 18.8552 17.9069 18.9313 17.793 18.9618C16.8923 19.2886 16.0348 19.2073 15.2204 18.7178C14.406 18.2284 13.9295 17.5203 13.791 16.5935C13.6143 15.433 13.9694 14.493 14.8563 13.7734C15.7433 13.0538 16.7203 12.8865 17.7874 13.2717C17.9051 13.3011 17.9735 13.3743 17.9926 13.4912C18.0117 13.6081 17.9777 13.7087 17.8905 13.7931C17.5522 14.0789 17.2814 14.4229 17.0781 14.8252C16.8747 15.2274 16.7741 15.66 16.7762 16.1231C16.7783 16.5862 16.8813 17.0161 17.0852 17.4129C17.2891 17.8097 17.5579 18.1525 17.8915 18.4413C17.9842 18.5141 18.0194 18.6114 17.9972 18.7333Z" fill="var(--fill-0, #002749)"/>
</g>
</svg>
