<svg preserveAspectRatio="none" width="100%" height="100%" overflow="visible" style="display: block;" viewBox="0 0 18 20" fill="none" xmlns="http://www.w3.org/2000/svg">
<g id="icon">
<path d="M9.00001 20C10.4806 20 11.7733 19.1956 12.4649 18H5.53514C6.22676 19.1956 7.51944 20 9.00001 20Z" fill="var(--fill-0, #002749)"/>
<path d="M9.00001 0C7.45633 0 6.18497 1.16592 6.01848 2.66519C3.64462 3.78438 2.00001 6.19905 2.00001 9V11.0824C2.00001 11.773 1.76498 12.443 1.33359 12.9822L0.219141 14.3753C-0.0209954 14.6755 -0.0678138 15.0867 0.0987061 15.4332C0.265226 15.7797 0.615604 16 1.00001 16H5.00001H13H17C17.3844 16 17.7348 15.7797 17.9013 15.4332C18.0678 15.0867 18.021 14.6755 17.7809 14.3753L16.6664 12.9822C16.235 12.443 16 11.773 16 11.0824V9C16 6.19905 14.3554 3.78439 11.9815 2.66519C11.8151 1.16592 10.5437 0 9.00001 0Z" fill="var(--fill-0, #002749)"/>
</g>
</svg>
