<svg preserveAspectRatio="none" width="100%" height="100%" overflow="visible" style="display: block;" viewBox="0 0 18 18" fill="none" xmlns="http://www.w3.org/2000/svg">
<g id="icon">
<path d="M2 18C1.45 18 0.979167 17.8042 0.5875 17.4125C0.195833 17.0208 0 16.55 0 16V2C0 1.45 0.195833 0.979167 0.5875 0.5875C0.979167 0.195833 1.45 0 2 0H8C8.28333 0 8.52083 0.0958333 8.7125 0.2875C8.90417 0.479167 9 0.716667 9 1C9 1.28333 8.90417 1.52083 8.7125 1.7125C8.52083 1.90417 8.28333 2 8 2H2V16H16V10C16 9.71667 16.0958 9.47917 16.2875 9.2875C16.4792 9.09583 16.7167 9 17 9C17.2833 9 17.5208 9.09583 17.7125 9.2875C17.9042 9.47917 18 9.71667 18 10V16C18 16.55 17.8042 17.0208 17.4125 17.4125C17.0208 17.8042 16.55 18 16 18H2Z" fill="var(--fill-0, #002749)"/>
<path d="M7.70702 11.707C7.31649 12.0975 6.68348 12.0975 6.29295 11.707C5.90243 11.3165 5.90243 10.6835 6.29295 10.293L13.293 3.29294L11.7071 1.70711C11.0772 1.07714 11.5233 0 12.4142 0H17C17.5523 0 18 0.447715 18 1V5.58579C18 6.47669 16.9229 6.92286 16.2929 6.29289L14.707 4.70701L7.70702 11.707Z" fill="var(--fill-0, #002749)"/>
</g>
</svg>
