<svg preserveAspectRatio="none" width="100%" height="100%" overflow="visible" style="display: block;" viewBox="0 0 18 18" fill="none" xmlns="http://www.w3.org/2000/svg">
<path id="icon" d="M9.0008 17.9084C7.15563 17.9215 5.35333 17.3523 3.8505 16.2816C3.41047 16.805 2.84937 17.2132 2.21586 17.4707C1.54086 17.7621 0.281973 18.1953 0.0569715 17.9027C-0.16803 17.6102 0.331474 17.2896 0.547476 16.3986C0.870741 15.386 1.06503 14.3367 1.12573 13.2755C0.38175 11.9576 -0.00599274 10.4687 0.000721039 8.95535C-0.0114372 7.37417 0.404518 5.81916 1.20448 4.45522C1.99869 3.0937 3.13728 1.96521 4.50581 1.18318C5.87434 0.401144 7.4246 -0.00688886 9.0008 8.79919e-05C10.5772 -0.00623352 12.1276 0.402573 13.4959 1.18541C14.8643 1.96825 16.0024 3.09753 16.796 4.45972C17.5958 5.82373 18.0117 7.37869 17.9997 8.95986C18.0107 10.5391 17.5948 12.092 16.796 13.4544C16.0017 14.8155 14.8633 15.9437 13.495 16.7255C12.1266 17.5073 10.5767 17.9153 9.0008 17.9084ZM5.62577 7.83482C5.47764 7.8325 5.33054 7.85987 5.19316 7.91533C5.05578 7.97078 4.9309 8.0532 4.82589 8.15771C4.72006 8.2615 4.636 8.38535 4.57861 8.52202C4.52123 8.65869 4.49167 8.80544 4.49167 8.95367C4.49167 9.1019 4.52123 9.24864 4.57861 9.38531C4.636 9.52198 4.72006 9.64584 4.82589 9.74963C4.9308 9.85434 5.05564 9.93696 5.19303 9.99261C5.33041 10.0483 5.47756 10.0758 5.62577 10.0736C5.77325 10.075 5.91942 10.0457 6.05499 9.98763C6.19055 9.92953 6.31256 9.84388 6.41328 9.73613C6.62185 9.52711 6.73898 9.24389 6.73898 8.9486C6.73898 8.65332 6.62185 8.3701 6.41328 8.16108C6.31256 8.05332 6.19055 7.96768 6.05499 7.90958C5.91942 7.85148 5.77325 7.82219 5.62577 7.82357V7.83482ZM9.0008 7.83482C8.85266 7.8325 8.70557 7.85987 8.56819 7.91533C8.43081 7.97078 8.30593 8.0532 8.20092 8.15771C8.09266 8.25803 8.00669 8.37997 7.94855 8.51563C7.89041 8.65129 7.8614 8.79765 7.86341 8.94523C7.85895 9.17001 7.92147 9.39104 8.043 9.58018C8.16454 9.76932 8.33961 9.91802 8.54592 10.0074C8.75223 10.0967 8.98045 10.1226 9.20154 10.0818C9.42263 10.0411 9.6266 9.93543 9.78747 9.77837C9.94833 9.62132 10.0588 9.41995 10.1049 9.1999C10.151 8.97984 10.1305 8.75106 10.0462 8.54266C9.96184 8.33426 9.8174 8.15567 9.63123 8.02962C9.44507 7.90357 9.22562 7.83576 9.0008 7.83482ZM12.3758 7.83482C12.2265 7.83349 12.0785 7.86275 11.941 7.92079C11.8034 7.97884 11.6792 8.06444 11.5759 8.17233C11.4702 8.27443 11.3861 8.39677 11.3287 8.53208C11.2712 8.66738 11.2416 8.81286 11.2416 8.95986C11.2416 9.10685 11.2712 9.25233 11.3287 9.38763C11.3861 9.52294 11.4702 9.64528 11.5759 9.74738C11.6792 9.85526 11.8034 9.94087 11.941 9.99892C12.0785 10.057 12.2265 10.0862 12.3758 10.0849C12.5233 10.0863 12.6695 10.057 12.805 9.99888C12.9406 9.94078 13.0626 9.85513 13.1633 9.74738C13.3719 9.53836 13.489 9.25514 13.489 8.95986C13.489 8.66457 13.3719 8.38135 13.1633 8.17233C13.0626 8.06457 12.9406 7.97893 12.805 7.92083C12.6695 7.86273 12.5233 7.83344 12.3758 7.83482Z" fill="var(--fill-0, #002749)"/>
</svg>
