<svg preserveAspectRatio="none" width="100%" height="100%" overflow="visible" style="display: block;" viewBox="0 0 19.9999 14" fill="none" xmlns="http://www.w3.org/2000/svg">
<path id="icon" d="M9.99993 0C10.3343 0 10.6465 0.167114 10.832 0.445312L14.2265 5.53711L18.3749 2.21875L18.5038 2.13184C18.816 1.9533 19.2053 1.95451 19.5195 2.14551C19.8785 2.36402 20.0628 2.78415 19.9804 3.19629L17.9804 13.1963C17.8868 13.6636 17.4765 14 16.9999 14H2.99993C2.52331 14 2.11301 13.6636 2.01946 13.1963L0.0194564 3.19629C-0.0629715 2.78415 0.121359 2.36402 0.480394 2.14551C0.839372 1.92725 1.29684 1.95628 1.62493 2.21875L5.77239 5.53711L9.16789 0.445312L9.24309 0.34668C9.43168 0.128167 9.70725 0 9.99993 0Z" fill="var(--fill-0, #002749)"/>
</svg>
