<svg preserveAspectRatio="none" width="100%" height="100%" overflow="visible" style="display: block;" viewBox="0 0 18.0001 17.9995" fill="none" xmlns="http://www.w3.org/2000/svg">
<g id="icon">
<path d="M4.82545 17.4249C4.64221 17.6082 4.42961 17.7496 4.18809 17.8496C3.94642 17.9496 3.69172 17.9995 3.42505 17.9995H0.999893C0.716706 17.9994 0.478854 17.9038 0.287262 17.7122C0.0957466 17.5206 0 17.2828 0 16.9996V14.5744C3.46026e-05 14.3078 0.050571 14.0536 0.150536 13.8121C0.250529 13.5705 0.391942 13.358 0.575215 13.1747L10.3684 3.40088L14.6089 7.64145L4.82545 17.4249Z" fill="var(--fill-0, #002749)"/>
<path d="M17.4249 1.99979C17.6249 2.18312 17.7711 2.40027 17.8627 2.65027C17.9542 2.90003 18.0001 3.14973 18.0001 3.3995C18.0001 3.66617 17.9544 3.92087 17.8627 4.16254C17.7711 4.40402 17.6255 4.62489 17.4256 4.82476L16.0231 6.22724L11.784 1.98805L13.2002 0.574524C13.4001 0.391302 13.6209 0.249824 13.8625 0.149846C14.1041 0.0498458 14.3588 0 14.6255 0C14.892 3.55719e-05 15.1504 0.0492253 15.4003 0.149155C15.6503 0.249155 15.8667 0.400074 16.0501 0.600074L17.4249 1.99979Z" fill="var(--fill-0, #002749)"/>
</g>
</svg>
