<svg preserveAspectRatio="none" width="100%" height="100%" overflow="visible" style="display: block;" viewBox="0 0 18 18" fill="none" xmlns="http://www.w3.org/2000/svg">
<path id="icon" fill-rule="evenodd" clip-rule="evenodd" d="M16 0C17.1046 0 18 0.895431 18 2V16C18 17.1046 17.1046 18 16 18H2C0.895431 18 8.05332e-09 17.1046 0 16V2C0 0.895431 0.895431 8.05319e-09 2 0H16ZM9 4C8.17157 4 7.5 4.67157 7.5 5.5V7.5H5.5C4.67157 7.5 4 8.17157 4 9C4 9.82843 4.67157 10.5 5.5 10.5H7.5V12.5C7.5 13.3284 8.17157 14 9 14C9.82843 14 10.5 13.3284 10.5 12.5V10.5H12.5C13.3284 10.5 14 9.82843 14 9C14 8.17157 13.3284 7.5 12.5 7.5H10.5V5.5C10.5 4.67157 9.82843 4 9 4Z" fill="var(--fill-0, #002749)"/>
</svg>
