<svg preserveAspectRatio="none" width="100%" height="100%" overflow="visible" style="display: block;" viewBox="0 0 20 20" fill="none" xmlns="http://www.w3.org/2000/svg">
<g id="icon">
<path fill-rule="evenodd" clip-rule="evenodd" d="M18 0C18.55 0 19.0204 0.196224 19.4121 0.587891C19.8038 0.979557 20 1.45 20 2V14C20 14.55 19.8038 15.0204 19.4121 15.4121C19.0204 15.8038 18.55 16 18 16H6C5.45 16 4.97956 15.8038 4.58789 15.4121C4.19622 15.0204 4 14.55 4 14V2C4 1.45 4.19622 0.979557 4.58789 0.587891C4.97956 0.196224 5.45 0 6 0H18ZM13.5498 7.8252C13.3832 7.82525 13.2504 7.89211 13.1504 8.02539L11.25 10.5L10.0996 9C9.99966 8.86685 9.86669 8.79986 9.7002 8.7998C9.53353 8.7998 9.3998 8.86667 9.2998 9L7.625 11.2002C7.49183 11.3667 7.47104 11.5414 7.5625 11.7246C7.65417 11.9079 7.80872 12 8.02539 12H15.9746C16.1913 12 16.3458 11.9079 16.4375 11.7246C16.529 11.5414 16.5082 11.3667 16.375 11.2002L13.9502 8.02539C13.8502 7.89206 13.7165 7.8252 13.5498 7.8252Z" fill="var(--fill-0, #002749)"/>
<path d="M2 20C1.45 20 0.979167 19.8042 0.5875 19.4125C0.195833 19.0208 0 18.55 0 18V5C0 4.71667 0.0958333 4.47917 0.2875 4.2875C0.479167 4.09583 0.716667 4 1 4C1.28333 4 1.52083 4.09583 1.7125 4.2875C1.90417 4.47917 2 4.71667 2 5V18H15C15.2833 18 15.5208 18.0958 15.7125 18.2875C15.9042 18.4792 16 18.7167 16 19C16 19.2833 15.9042 19.5208 15.7125 19.7125C15.5208 19.9042 15.2833 20 15 20H2Z" fill="var(--fill-0, #002749)"/>
</g>
</svg>
