<svg preserveAspectRatio="none" width="100%" height="100%" overflow="visible" style="display: block;" viewBox="0 0 18 20" fill="none" xmlns="http://www.w3.org/2000/svg">
<path id="icon" d="M9 0C9.63333 0 10.2046 0.183138 10.7129 0.549805C11.2211 0.916444 11.5832 1.40009 11.7998 2H16C16.55 2 17.0204 2.19622 17.4121 2.58789C17.8038 2.97956 18 3.45 18 4V18C18 18.55 17.8038 19.0204 17.4121 19.4121C17.0204 19.8038 16.55 20 16 20H2C1.45 20 0.979557 19.8038 0.587891 19.4121C0.196224 19.0204 0 18.55 0 18V4C0 3.45 0.196224 2.97956 0.587891 2.58789C0.979557 2.19622 1.45 2 2 2H6.2002C6.41684 1.40009 6.77888 0.916444 7.28711 0.549805C7.79544 0.183138 8.36667 0 9 0ZM9 9.83301C7.25 9.83301 5.5 11.4669 5.5 13.3164C5.50015 15.0834 7.25008 15.667 9 15.667C10.7499 15.667 12.4998 15.0834 12.5 13.3164C12.5 11.5492 10.75 9.83301 9 9.83301ZM4.47949 8.66699C3.75462 8.66699 3.16699 9.25462 3.16699 9.97949C3.16717 10.7042 3.75473 11.292 4.47949 11.292C5.20411 11.2918 5.79182 10.7041 5.79199 9.97949C5.79199 9.25473 5.20422 8.66717 4.47949 8.66699ZM13.5205 8.66699C12.7958 8.66717 12.208 9.25473 12.208 9.97949C12.2082 10.7041 12.7959 11.2918 13.5205 11.292C14.2453 11.292 14.8328 10.7042 14.833 9.97949C14.833 9.25462 14.2454 8.66699 13.5205 8.66699ZM7.2207 6.33301C6.49605 6.33314 5.90838 6.92087 5.9082 7.64551C5.9082 8.3703 6.49594 8.95788 7.2207 8.95801C7.94558 8.95801 8.5332 8.37038 8.5332 7.64551C8.53303 6.92078 7.94547 6.33301 7.2207 6.33301ZM10.7793 6.33301C10.0545 6.33301 9.46697 6.92078 9.4668 7.64551C9.4668 8.37038 10.0544 8.95801 10.7793 8.95801C11.5041 8.95788 12.0918 8.3703 12.0918 7.64551C12.0916 6.92086 11.504 6.33314 10.7793 6.33301ZM9 1.75C8.78333 1.75 8.60456 1.82122 8.46289 1.96289C8.32122 2.10456 8.25 2.28333 8.25 2.5C8.25 2.71667 8.32122 2.89544 8.46289 3.03711C8.60456 3.17878 8.78333 3.25 9 3.25C9.21667 3.25 9.39544 3.17878 9.53711 3.03711C9.67878 2.89544 9.75 2.71667 9.75 2.5C9.75 2.28333 9.67878 2.10456 9.53711 1.96289C9.39544 1.82122 9.21667 1.75 9 1.75Z" fill="var(--fill-0, #002749)"/>
</svg>
