<svg preserveAspectRatio="none" width="100%" height="100%" overflow="visible" style="display: block;" viewBox="0 0 19.4987 17.002" fill="none" xmlns="http://www.w3.org/2000/svg">
<g id="icon">
<path d="M13.4099 0.833008C14.5615 0.847035 16.0809 1.50141 16.4587 3.0127L18.7136 3.3877C19.1547 3.46136 19.4983 3.81931 19.4987 4.2666C19.5003 5.86798 19.0047 8.17169 16.9587 8.5127C13.9589 9.01249 11.4587 8.01281 11.4587 10.0127C15.3868 10.4055 17.4635 11.4155 18.4157 12.3154C18.8014 12.6799 18.706 13.2654 18.3308 13.6406C17.8493 14.122 16.9884 14.2145 16.3298 14.042C15.4927 13.8228 14.2929 13.6354 12.9733 13.5518C14.0461 13.7148 15.6418 14.1021 16.8796 15.0156C17.2465 15.2868 17.321 15.7881 17.1169 16.1963C16.793 16.8436 15.799 17.1648 15.1179 16.9199C13.7232 16.4183 11.5429 15.7767 9.95869 15.5127C8.24842 15.2278 6.60598 15.7719 5.50166 16.3496C4.93763 16.6447 4.19075 16.4755 3.90596 15.9062L0.160839 8.41504C-0.222905 7.64755 0.104395 6.71505 0.883495 6.35547L5.72041 4.12207C5.74873 4.2185 5.78066 4.31478 5.81807 4.41016C6.20905 5.40654 6.99045 6.114 7.96357 6.29785C8.93812 6.48178 9.92347 6.10638 10.6481 5.31445C11.0665 4.85727 11.5594 4.39501 12.2067 3.96387C13.1736 3.31981 13.7872 2.06131 13.4099 0.833008Z" fill="var(--fill-0, #002749)"/>
<path d="M8.17663 0.897119L10.4089 0.0936259C11.1705 -0.180532 12.0162 0.165517 12.3671 0.894975C12.7515 1.694 12.3909 2.64033 11.6529 3.13187C10.9227 3.61822 10.3692 4.13797 9.91028 4.63952C8.86109 5.78609 7.31702 5.49198 6.74931 4.04521C6.25328 2.78113 6.89896 1.35702 8.17663 0.897119Z" fill="var(--fill-0, #002749)"/>
</g>
</svg>
