<svg preserveAspectRatio="none" width="100%" height="100%" overflow="visible" style="display: block;" viewBox="0 0 18 18" fill="none" xmlns="http://www.w3.org/2000/svg">
<g id="icon">
<path d="M0 17C0 16.4477 0.447715 16 1 16H15C15.5523 16 16 16.4477 16 17C16 17.5523 15.5523 18 15 18H1C0.447715 18 0 17.5523 0 17Z" fill="var(--fill-0, #002749)"/>
<path fill-rule="evenodd" clip-rule="evenodd" d="M2 0C0.89543 0 0 0.895431 0 2V10C0 12.2091 1.79086 14 4 14H10C12.2091 14 14 12.2091 14 10V7H16C17.1046 7 18 6.10457 18 5V2C18 0.89543 17.1046 0 16 0H2ZM14 2H16V5H14V2Z" fill="var(--fill-0, #002749)"/>
</g>
</svg>
