<svg preserveAspectRatio="none" width="100%" height="100%" overflow="visible" style="display: block;" viewBox="0 0 20 18" fill="none" xmlns="http://www.w3.org/2000/svg">
<g id="icon">
<path d="M19 0.5C19.5523 0.5 20 0.947715 20 1.5C20 2.05228 19.5523 2.5 19 2.5H6C5.44772 2.5 5 2.05228 5 1.5C5 0.947715 5.44772 0.5 6 0.5H19Z" fill="var(--fill-0, #002749)"/>
<path d="M19 8C19.5523 8 20 8.44772 20 9C20 9.55228 19.5523 10 19 10H6C5.44772 10 5 9.55228 5 9C5 8.44772 5.44772 8 6 8H19Z" fill="var(--fill-0, #002749)"/>
<path d="M19 15.5C19.5523 15.5 20 15.9477 20 16.5C20 17.0523 19.5523 17.5 19 17.5H6C5.44772 17.5 5 17.0523 5 16.5C5 15.9477 5.44772 15.5 6 15.5H19Z" fill="var(--fill-0, #002749)"/>
<path d="M3 1.5C3 2.32843 2.32843 3 1.5 3C0.671573 3 0 2.32843 0 1.5C0 0.671573 0.671573 0 1.5 0C2.32843 0 3 0.671573 3 1.5Z" fill="var(--fill-0, #002749)"/>
<path d="M3 9C3 9.82843 2.32843 10.5 1.5 10.5C0.671573 10.5 0 9.82843 0 9C0 8.17157 0.671573 7.5 1.5 7.5C2.32843 7.5 3 8.17157 3 9Z" fill="var(--fill-0, #002749)"/>
<path d="M3 16.5C3 17.3284 2.32843 18 1.5 18C0.671573 18 0 17.3284 0 16.5C0 15.6716 0.671573 15 1.5 15C2.32843 15 3 15.6716 3 16.5Z" fill="var(--fill-0, #002749)"/>
</g>
</svg>
