<svg preserveAspectRatio="none" width="100%" height="100%" overflow="visible" style="display: block;" viewBox="0 0 20 15" fill="none" xmlns="http://www.w3.org/2000/svg">
<path id="icon" fill-rule="evenodd" clip-rule="evenodd" d="M19 0C19.5523 0 20 0.447715 20 1V14C20 14.5523 19.5523 15 19 15H1C0.447715 15 0 14.5523 0 14V1C0 0.447715 0.447715 0 1 0H19ZM17.7324 2.31934C17.3566 1.91492 16.7239 1.89187 16.3193 2.26758L10 8.13477L3.68066 2.26758C3.27605 1.89188 2.64341 1.91492 2.26758 2.31934C1.89187 2.72394 1.91492 3.35658 2.31934 3.73242L9.31934 10.2324C9.70302 10.5887 10.297 10.5887 10.6807 10.2324L17.6807 3.73242C18.0851 3.35659 18.1081 2.72395 17.7324 2.31934Z" fill="var(--fill-0, #002749)"/>
</svg>
