<svg preserveAspectRatio="none" width="100%" height="100%" overflow="visible" style="display: block;" viewBox="0 0 20.9994 17.0001" fill="none" xmlns="http://www.w3.org/2000/svg">
<path id="icon" d="M8.69991 0.599753C9.76647 -0.199858 11.233 -0.199977 12.2995 0.599753L20.5993 6.82534C21.041 7.15669 21.1307 7.78299 20.7995 8.22475C20.4682 8.66648 19.8419 8.75605 19.4001 8.42495L18.4997 7.75014V15.0001C18.4997 16.1047 17.6043 17.0001 16.4997 17.0001H4.49972C3.39519 17.0001 2.49972 16.1047 2.49972 15.0001V7.74917L1.59933 8.42495C1.15755 8.75615 0.531269 8.66642 0.199913 8.22475C-0.131319 7.78293 -0.041667 7.15667 0.400109 6.82534L8.69991 0.599753ZM10.4997 8.83315C8.74975 8.83321 6.99972 10.4671 6.99972 12.3166C6.99986 14.0835 8.74982 14.6671 10.4997 14.6671C12.2496 14.6671 13.9996 14.0835 13.9997 12.3166C13.9997 10.5494 12.2497 8.83315 10.4997 8.83315ZM5.97921 7.66714C5.25434 7.66714 4.66671 8.25476 4.66671 8.97964C4.66688 9.70437 5.25444 10.2921 5.97921 10.2921C6.70388 10.292 7.29155 9.70429 7.29171 8.97964C7.29171 8.25484 6.70398 7.66726 5.97921 7.66714ZM15.0202 7.66714C14.2955 7.66736 13.7077 8.2549 13.7077 8.97964C13.7079 9.70423 14.2956 10.2919 15.0202 10.2921C15.745 10.2921 16.3326 9.70437 16.3327 8.97964C16.3327 8.25476 15.7451 7.66714 15.0202 7.66714ZM8.72042 5.33315C7.99582 5.33333 7.40811 5.92105 7.40792 6.64565C7.40792 7.37041 7.9957 7.95797 8.72042 7.95815C9.44529 7.95815 10.0329 7.37053 10.0329 6.64565C10.0327 5.92094 9.44518 5.33315 8.72042 5.33315ZM12.279 5.33315C11.5543 5.33315 10.9667 5.92094 10.9665 6.64565C10.9665 7.37053 11.5541 7.95815 12.279 7.95815C13.0038 7.95807 13.5915 7.37048 13.5915 6.64565C13.5913 5.92099 13.0037 5.33323 12.279 5.33315Z" fill="var(--fill-0, #002749)"/>
</svg>
