<svg preserveAspectRatio="none" width="100%" height="100%" overflow="visible" style="display: block;" viewBox="0 0 22 19" fill="none" xmlns="http://www.w3.org/2000/svg">
<path id="icon" d="M6.225 19C5.74167 19 5.31667 18.8458 4.95 18.5375C4.58333 18.2292 4.35833 17.8333 4.275 17.35L2.35 6.975C1.73333 7.09167 1.1875 6.95 0.7125 6.55C0.2375 6.15 0 5.63333 0 5C0 4.45 0.195833 3.97917 0.5875 3.5875C0.979167 3.19583 1.45 3 2 3C2.55 3 3.02083 3.19583 3.4125 3.5875C3.80417 3.97917 4 4.45 4 5C4 5.23333 3.96667 5.45 3.9 5.65C3.83333 5.85 3.73333 6.03333 3.6 6.2C3.96667 6.41667 4.3375 6.59583 4.7125 6.7375C5.0875 6.87917 5.48333 6.95 5.9 6.95C6.63333 6.95 7.3125 6.76667 7.9375 6.4C8.5625 6.03333 9.05 5.53333 9.4 4.9L10.025 3.75C9.70833 3.56667 9.45833 3.325 9.275 3.025C9.09167 2.725 9 2.38333 9 2C9 1.45 9.19583 0.979167 9.5875 0.5875C9.97917 0.195833 10.45 0 11 0C11.55 0 12.0208 0.195833 12.4125 0.5875C12.8042 0.979167 13 1.45 13 2C13 2.38333 12.9083 2.725 12.725 3.025C12.5417 3.325 12.2917 3.56667 11.975 3.75L12.6 4.9C12.95 5.53333 13.4375 6.03333 14.0625 6.4C14.6875 6.76667 15.3667 6.95 16.1 6.95C16.5167 6.95 16.9125 6.88333 17.2875 6.75C17.6625 6.61667 18.0333 6.44167 18.4 6.225C18.2667 6.05833 18.1667 5.87083 18.1 5.6625C18.0333 5.45417 18 5.23333 18 5C18 4.45 18.1958 3.97917 18.5875 3.5875C18.9792 3.19583 19.45 3 20 3C20.55 3 21.0208 3.19583 21.4125 3.5875C21.8042 3.97917 22 4.45 22 5C22 5.63333 21.7625 6.15 21.2875 6.55C20.8125 6.95 20.2667 7.09167 19.65 6.975L17.725 17.35C17.6417 17.8333 17.4167 18.2292 17.05 18.5375C16.6833 18.8458 16.2583 19 15.775 19H6.225Z" fill="var(--fill-0, #002749)"/>
</svg>
