<svg preserveAspectRatio="none" width="100%" height="100%" overflow="visible" style="display: block;" viewBox="0 0 16.5 21" fill="none" xmlns="http://www.w3.org/2000/svg">
<path id="icon" d="M8.25 0C6.06273 0.00248131 3.96575 0.872472 2.41911 2.41911C0.872472 3.96575 0.00248131 6.06273 0 8.25C0 10.4466 0.88125 12.8831 2.35594 14.7656C3.48844 16.2103 4.84031 17.2031 6.285 17.6803L5.31094 19.9547C5.26208 20.0687 5.24229 20.1931 5.25332 20.3167C5.26436 20.4403 5.30588 20.5592 5.37416 20.6628C5.44245 20.7664 5.53536 20.8514 5.64459 20.9103C5.75381 20.9691 5.87593 20.9999 6 21H10.5C10.6241 20.9999 10.7462 20.9691 10.8554 20.9103C10.9646 20.8514 11.0576 20.7664 11.1258 20.6628C11.1941 20.5592 11.2356 20.4403 11.2467 20.3167C11.2577 20.1931 11.2379 20.0687 11.1891 19.9547L10.2188 17.6803C11.6625 17.205 13.0153 16.2103 14.1478 14.7656C15.6188 12.8831 16.5 10.4466 16.5 8.25C16.4975 6.06273 15.6275 3.96575 14.0809 2.41911C12.5343 0.872472 10.4373 0.00248131 8.25 0ZM12.8738 8.23969C12.8328 8.24633 12.7915 8.24978 12.75 8.25C12.5727 8.24977 12.4012 8.18674 12.266 8.0721C12.1308 7.95746 12.0405 7.79861 12.0112 7.62375C11.8726 6.84331 11.4977 6.12426 10.9372 5.56377C10.3767 5.00327 9.65762 4.62836 8.87719 4.48969C8.77932 4.47425 8.68549 4.43957 8.6011 4.38765C8.51671 4.33574 8.44345 4.26762 8.38554 4.18723C8.32763 4.10684 8.28622 4.01577 8.2637 3.91929C8.24119 3.8228 8.23801 3.72282 8.25436 3.6251C8.27071 3.52738 8.30626 3.43387 8.35895 3.34997C8.41164 3.26606 8.48044 3.19343 8.56136 3.13627C8.64229 3.07911 8.73373 3.03855 8.83042 3.01693C8.92711 2.99531 9.02713 2.99306 9.12469 3.01031C10.212 3.20324 11.2138 3.72544 11.9947 4.50628C12.7755 5.28713 13.2977 6.28895 13.4906 7.37625C13.5069 7.47345 13.5038 7.57291 13.4816 7.66892C13.4593 7.76493 13.4184 7.85562 13.3611 7.93581C13.3038 8.016 13.2313 8.08411 13.1477 8.13625C13.0641 8.18839 12.971 8.22354 12.8738 8.23969Z" fill="var(--fill-0, #002749)"/>
</svg>
