<svg preserveAspectRatio="none" width="100%" height="100%" overflow="visible" style="display: block;" viewBox="0 0 20 20" fill="none" xmlns="http://www.w3.org/2000/svg">
<path id="icon" d="M12.5 0C14.433 0 16 1.567 16 3.5C16 3.68402 15.9854 3.86466 15.958 4.04102C16.1346 4.01357 16.3157 4 16.5 4C18.433 4 20 5.567 20 7.5C20 9.433 18.433 11 16.5 11C15.5949 11 14.7698 10.6566 14.1484 10.0928L10.0928 14.1484C10.6566 14.7698 11 15.5949 11 16.5C11 18.433 9.433 20 7.5 20C5.567 20 4 18.433 4 16.5C4 16.3157 4.01357 16.1346 4.04102 15.958C3.86466 15.9854 3.68402 16 3.5 16C1.567 16 0 14.433 0 12.5C0 10.567 1.567 9 3.5 9C4.40464 9 5.22937 9.34293 5.85059 9.90625L9.90625 5.85059C9.34293 5.22937 9 4.40464 9 3.5C9 1.567 10.567 0 12.5 0Z" fill="var(--fill-0, #002749)"/>
</svg>
