<svg preserveAspectRatio="none" width="100%" height="100%" overflow="visible" style="display: block;" viewBox="0 0 20 20" fill="none" xmlns="http://www.w3.org/2000/svg">
<path id="icon" fill-rule="evenodd" clip-rule="evenodd" d="M0 1C0 0.447715 0.447715 0 1 0H3C3.49765 0 3.91957 0.36593 3.98995 0.858579L4.22444 2.5H19C19.3079 2.5 19.5987 2.64187 19.7882 2.88459C19.9777 3.1273 20.0448 3.44379 19.9701 3.74254L17.9701 11.7425C17.8589 12.1877 17.4589 12.5 17 12.5H5.65301L5.8673 14H16C17.6569 14 19 15.3431 19 17C19 18.6569 17.6569 20 16 20C14.3431 20 13 18.6569 13 17C13 16.6494 13.0602 16.3128 13.1707 16H8.82929C8.93985 16.3128 9 16.6494 9 17C9 18.6569 7.65685 20 6 20C4.34315 20 3 18.6569 3 17C3 16.1304 3.37 15.3472 3.96117 14.7993L2.1327 2H1C0.447715 2 0 1.55228 0 1Z" fill="var(--fill-0, #002749)"/>
</svg>
