<svg preserveAspectRatio="none" width="100%" height="100%" overflow="visible" style="display: block;" viewBox="0 0 20 20" fill="none" xmlns="http://www.w3.org/2000/svg">
<g id="icon">
<path fill-rule="evenodd" clip-rule="evenodd" d="M0 10C0 4.47715 4.47715 0 10 0C15.5228 0 20 4.47715 20 10C20 15.5228 15.5228 20 10 20C4.47715 20 0 15.5228 0 10ZM9 7.5C8.44772 7.5 8 7.94772 8 8.5C8 9.05228 8.44772 9.5 9 9.5V14H8.5C7.94772 14 7.5 14.4477 7.5 15C7.5 15.5523 7.94772 16 8.5 16H11.5C12.0523 16 12.5 15.5523 12.5 15C12.5 14.4477 12.0523 14 11.5 14H11V8.5C11 7.94772 10.5523 7.5 10 7.5H9ZM9.7002 6.5C10.5286 6.5 11.2002 5.82843 11.2002 5C11.2002 4.17157 10.5286 3.5 9.7002 3.5C8.87177 3.5 8.2002 4.17157 8.2002 5C8.2002 5.82843 8.87177 6.5 9.7002 6.5Z" fill="var(--fill-0, #002749)"/>
</g>
</svg>
