<svg preserveAspectRatio="none" width="100%" height="100%" overflow="visible" style="display: block;" viewBox="0 0 20 17.9998" fill="none" xmlns="http://www.w3.org/2000/svg">
<path id="icon" d="M14.001 0C15.7303 8.8878e-05 17.2623 0.582504 18.3564 1.75488C19.4442 2.92054 20 4.5624 20 6.5C20 8.29164 19.1264 10.502 17.541 12.5498C15.9377 14.6207 13.5489 16.6044 10.3848 17.9229C10.1386 18.0254 9.86139 18.0254 9.61523 17.9229C6.45112 16.6044 4.06227 14.6207 2.45898 12.5498C0.873584 10.502 0 8.29164 0 6.5C0 4.5624 0.555792 2.92054 1.64355 1.75488C2.73769 0.582504 4.26974 8.88779e-05 5.99902 0C7.46913 0 8.61472 0.450856 9.45703 1.29297C9.66065 1.49657 9.84057 1.71705 10 1.9502C10.1594 1.71705 10.3393 1.49657 10.543 1.29297C11.3853 0.450856 12.5309 0 14.001 0ZM10 7.83301C8.25 7.83301 6.5 9.4669 6.5 11.3164C6.50015 13.0834 8.25008 13.667 10 13.667C11.7499 13.667 13.4998 13.0834 13.5 11.3164C13.5 9.54925 11.75 7.83301 10 7.83301ZM5.47949 6.66699C4.75462 6.66699 4.16699 7.25462 4.16699 7.97949C4.16717 8.70422 4.75473 9.29199 5.47949 9.29199C6.20411 9.29182 6.79182 8.70411 6.79199 7.97949C6.79199 7.25473 6.20422 6.66717 5.47949 6.66699ZM14.5205 6.66699C13.7958 6.66717 13.208 7.25473 13.208 7.97949C13.2082 8.70411 13.7959 9.29182 14.5205 9.29199C15.2453 9.29199 15.8328 8.70422 15.833 7.97949C15.833 7.25462 15.2454 6.66699 14.5205 6.66699ZM8.2207 4.33301C7.49605 4.33314 6.90838 4.92087 6.9082 5.64551C6.9082 6.3703 7.49594 6.95788 8.2207 6.95801C8.94558 6.95801 9.5332 6.37038 9.5332 5.64551C9.53303 4.92078 8.94547 4.33301 8.2207 4.33301ZM11.7793 4.33301C11.0545 4.33301 10.467 4.92078 10.4668 5.64551C10.4668 6.37038 11.0544 6.95801 11.7793 6.95801C12.5041 6.95788 13.0918 6.3703 13.0918 5.64551C13.0916 4.92086 12.504 4.33314 11.7793 4.33301Z" fill="var(--fill-0, #002749)"/>
</svg>
