<svg preserveAspectRatio="none" width="100%" height="100%" overflow="visible" style="display: block;" viewBox="0 0 20 20" fill="none" xmlns="http://www.w3.org/2000/svg">
<g id="icon">
<path fill-rule="evenodd" clip-rule="evenodd" d="M10 0C4.47715 0 0 4.47715 0 10C0 15.5228 4.47715 20 10 20C15.5228 20 20 15.5228 20 10C20 4.47715 15.5228 0 10 0ZM15.2071 6.79289C15.5976 7.18342 15.5976 7.81658 15.2071 8.20711L9.20711 14.2071C8.81658 14.5976 8.18342 14.5976 7.79289 14.2071L4.79289 11.2071C4.40237 10.8166 4.40237 10.1834 4.79289 9.79289C5.18342 9.40237 5.81658 9.40237 6.20711 9.79289L8.5 12.0858L13.7929 6.79289C14.1834 6.40237 14.8166 6.40237 15.2071 6.79289Z" fill="var(--fill-0, #002749)"/>
</g>
</svg>
