<svg preserveAspectRatio="none" width="100%" height="100%" overflow="visible" style="display: block;" viewBox="0 0 20 20" fill="none" xmlns="http://www.w3.org/2000/svg">
<path id="icon" fill-rule="evenodd" clip-rule="evenodd" d="M0 10C0 4.47715 4.47715 0 10 0C15.5228 0 20 4.47715 20 10C20 15.5228 15.5228 20 10 20C4.47715 20 0 15.5228 0 10ZM8 7.5C8 6.39543 8.89543 5.5 10 5.5C11.1046 5.5 12 6.39543 12 7.5C12 8.60457 11.1046 9.5 10 9.5C9.44772 9.5 9 9.94772 9 10.5V12C9 12.5523 9.44772 13 10 13C10.5523 13 11 12.5523 11 12V11.374C12.7252 10.9299 14 9.36384 14 7.5C14 5.29086 12.2091 3.5 10 3.5C7.79086 3.5 6 5.29086 6 7.5C6 8.05228 6.44772 8.5 7 8.5C7.55228 8.5 8 8.05228 8 7.5ZM10 16.5C10.6904 16.5 11.25 15.9404 11.25 15.25C11.25 14.5596 10.6904 14 10 14C9.30964 14 8.75 14.5596 8.75 15.25C8.75 15.9404 9.30964 16.5 10 16.5Z" fill="var(--fill-0, #002749)"/>
</svg>
