<svg preserveAspectRatio="none" width="100%" height="100%" overflow="visible" style="display: block;" viewBox="0 0 20.9996 19.9999" fill="none" xmlns="http://www.w3.org/2000/svg">
<path id="icon" d="M10.4998 0C10.8797 0.000142756 11.2276 0.21528 11.3963 0.555664L14.0984 6.01074L20.1434 6.88574C20.5202 6.94055 20.8335 7.20508 20.951 7.56738C21.0683 7.92971 20.9693 8.3274 20.6961 8.59277L16.324 12.8369L17.3563 18.8301C17.4208 19.2049 17.2671 19.5846 16.9598 19.8086C16.6523 20.0324 16.244 20.0621 15.907 19.8857L10.4998 17.0537L5.09258 19.8857C4.75568 20.0622 4.34736 20.0323 4.03985 19.8086C3.73229 19.5846 3.57881 19.205 3.64337 18.8301L4.67559 12.8369L0.303521 8.59277C0.0301831 8.32737 -0.0687272 7.92983 0.0486386 7.56738C0.166147 7.20502 0.479268 6.94043 0.856256 6.88574L6.90118 6.01074L9.60333 0.555664C9.77212 0.215254 10.1198 0 10.4998 0ZM10.4998 10C8.99981 10 7.49981 11.4001 7.49981 12.9854C7.49985 14.5 8.99983 15 10.4998 15C11.9997 15 13.4998 14.5 13.4998 12.9854C13.4998 11.4707 11.9997 10.0001 10.4998 10ZM6.62481 9C6.00349 9 5.49981 9.50368 5.49981 10.125C5.49981 10.7463 6.00349 11.25 6.62481 11.25C7.24605 11.2499 7.74981 10.7463 7.74981 10.125C7.74981 9.50374 7.24605 9.0001 6.62481 9ZM14.3748 9C13.7535 9 13.2498 9.50368 13.2498 10.125C13.2498 10.7463 13.7535 11.25 14.3748 11.25C14.996 11.2499 15.4998 10.7463 15.4998 10.125C15.4998 9.50374 14.996 9.0001 14.3748 9ZM8.97442 7C8.35324 7.00016 7.84942 7.50378 7.84942 8.125C7.84942 8.74622 8.35324 9.24984 8.97442 9.25C9.59574 9.25 10.0994 8.74632 10.0994 8.125C10.0994 7.50368 9.59574 7 8.97442 7ZM12.0242 7C11.403 7.00016 10.8992 7.50378 10.8992 8.125C10.8992 8.74622 11.403 9.24984 12.0242 9.25C12.6455 9.25 13.1492 8.74632 13.1492 8.125C13.1492 7.50368 12.6455 7 12.0242 7Z" fill="var(--fill-0, #002749)"/>
</svg>
