<svg preserveAspectRatio="none" width="100%" height="100%" overflow="visible" style="display: block;" viewBox="0 0 18 18" fill="none" xmlns="http://www.w3.org/2000/svg">
<path id="icon" fill-rule="evenodd" clip-rule="evenodd" d="M1.6375 16.3625C2.72917 17.4542 4.05833 18 5.625 18C6.375 18 7.09167 17.8583 7.775 17.575C8.45833 17.2917 9.06667 16.8833 9.6 16.35L16.35 9.6C16.8833 9.06667 17.2917 8.45833 17.575 7.775C17.8583 7.09167 18 6.375 18 5.625C18 4.05833 17.4542 2.72917 16.3625 1.6375C15.2708 0.545833 13.9417 0 12.375 0C11.625 0 10.9083 0.141667 10.225 0.425C9.54167 0.708333 8.93333 1.11667 8.4 1.65L1.65 8.4C1.11667 8.93333 0.708333 9.54167 0.425 10.225C0.141667 10.9083 0 11.625 0 12.375C0 13.9417 0.545833 15.2708 1.6375 16.3625ZM7.025 15.725C6.575 15.9083 6.10833 16 5.625 16C4.625 16 3.77083 15.6458 3.0625 14.9375C2.35417 14.2292 2 13.375 2 12.375C2 11.8917 2.09167 11.425 2.275 10.975C2.45833 10.525 2.71667 10.1333 3.05 9.8L6.4375 6.4375L11.5625 11.5625L8.2 14.95C7.86667 15.2833 7.475 15.5417 7.025 15.725Z" fill="var(--fill-0, #002749)"/>
</svg>
