<svg preserveAspectRatio="none" width="100%" height="100%" overflow="visible" style="display: block;" viewBox="0 0 20.0029 20.0029" fill="none" xmlns="http://www.w3.org/2000/svg">
<path id="icon" fill-rule="evenodd" clip-rule="evenodd" d="M2.07677 1.25044C1.6523 1.31954 1.31954 1.6523 1.25044 2.07677L0.0130023 9.67817C-0.0364064 9.98168 0.0565726 10.291 0.265119 10.517L8.72212 19.6811C8.9067 19.8812 9.16484 19.9973 9.43695 20.0027C9.70907 20.0082 9.97166 19.9025 10.1641 19.7101L19.7101 10.1641C19.9025 9.97166 20.0082 9.70907 20.0027 9.43695C19.9973 9.16484 19.8812 8.9067 19.6811 8.72212L10.517 0.265119C10.291 0.0565726 9.98168 -0.0364062 9.67817 0.0130022L2.07677 1.25044ZM7.1872 6.87523C7.77298 6.28944 7.77298 5.33969 7.1872 4.75391C6.60141 4.16812 5.65166 4.16812 5.06588 4.75391C4.48009 5.33969 4.48009 6.28944 5.06588 6.87523C5.65166 7.46101 6.60141 7.46101 7.1872 6.87523Z" fill="var(--fill-0, #002749)"/>
</svg>
