<svg preserveAspectRatio="none" width="100%" height="100%" overflow="visible" style="display: block;" viewBox="0 0 16 20" fill="none" xmlns="http://www.w3.org/2000/svg">
<path id="icon" d="M2 20C1.45 20 0.979167 19.8042 0.5875 19.4125C0.195833 19.0208 0 18.55 0 18V2C0 1.45 0.195833 0.979167 0.5875 0.5875C0.979167 0.195833 1.45 0 2 0H14C14.55 0 15.0208 0.195833 15.4125 0.5875C15.8042 0.979167 16 1.45 16 2V18C16 18.55 15.8042 19.0208 15.4125 19.4125C15.0208 19.8042 14.55 20 14 20H2ZM7 15L5.775 13.375C5.675 13.2417 5.5375 13.175 5.3625 13.175C5.1875 13.175 5.05 13.2417 4.95 13.375L3.575 15.225C3.45833 15.3917 3.44583 15.5625 3.5375 15.7375C3.62917 15.9125 3.775 16 3.975 16H12C12.2 16 12.3458 15.9125 12.4375 15.7375C12.5292 15.5625 12.5167 15.3833 12.4 15.2L10.025 12.05C9.925 11.9167 9.79167 11.85 9.625 11.85C9.45833 11.85 9.325 11.9167 9.225 12.05L7 15ZM7 2V8.125C7 8.325 7.07917 8.47083 7.2375 8.5625C7.39583 8.65417 7.56667 8.65 7.75 8.55L8.975 7.825C9.14167 7.725 9.3125 7.675 9.4875 7.675C9.6625 7.675 9.83333 7.725 10 7.825L11.225 8.55C11.4083 8.65 11.5833 8.65417 11.75 8.5625C11.9167 8.47083 12 8.325 12 8.125V2H7Z" fill="var(--fill-0, #002749)"/>
</svg>
