<svg preserveAspectRatio="none" width="100%" height="100%" overflow="visible" style="display: block;" viewBox="0 0 8 8" fill="none" xmlns="http://www.w3.org/2000/svg">
<g id="wanpass face" clip-path="url(#clip0_314_4578)">
<g id="face">
<path d="M1.30414 2.50074C1.83433 2.50074 2.26414 2.07093 2.26414 1.54074C2.26414 1.01055 1.83433 0.580741 1.30414 0.580741C0.773948 0.580741 0.344141 1.01055 0.344141 1.54074C0.344141 2.07093 0.773948 2.50074 1.30414 2.50074Z" fill="var(--fill-0, #000007)"/>
<path d="M6.70266 2.49778C7.23285 2.49778 7.66266 2.06797 7.66266 1.53778C7.66266 1.00758 7.23285 0.577778 6.70266 0.577778C6.17247 0.577778 5.74266 1.00758 5.74266 1.53778C5.74266 2.06797 6.17247 2.49778 6.70266 2.49778Z" fill="var(--fill-0, #000007)"/>
<path d="M7.90859 6.72296L7.41081 6.17778C7.39599 6.16296 7.38118 6.16296 7.3634 6.17778C6.64044 6.81481 5.52933 6.76148 4.87451 6.04741C4.59007 5.73926 4.43599 5.34815 4.41229 4.94222C4.7797 4.6963 5.15599 4.19852 5.15599 3.7363C5.15599 3.09926 4.64044 3.02222 4.0034 3.02222C3.36636 3.02222 2.85081 3.09926 2.85081 3.7363C2.85081 4.19852 3.2271 4.6963 3.59451 4.94222C3.57081 5.34815 3.41081 5.73333 3.13229 6.04741C2.80933 6.4 2.37081 6.60148 1.89673 6.62222C1.42859 6.64593 0.990068 6.48296 0.637475 6.17778C0.62266 6.16296 0.607845 6.16889 0.590068 6.17778L0.0922898 6.72296C0.077475 6.73778 0.083401 6.76148 0.0922898 6.77037C0.569327 7.19407 1.17377 7.42222 1.81377 7.42222H1.82859C2.37377 7.42222 2.91896 7.24444 3.35747 6.91556C3.61822 6.71704 3.83451 6.47704 4.0034 6.2163C4.08933 6.34667 4.17229 6.46222 4.27896 6.57778C4.78562 7.13185 5.48488 7.4163 6.18414 7.4163C6.79748 7.4163 7.41377 7.2 7.90562 6.76444C7.92044 6.75556 7.92044 6.73481 7.90562 6.72593L7.90859 6.72296Z" fill="var(--fill-0, #000007)"/>
</g>
</g>
<defs>
<clipPath id="clip0_314_4578">
<rect width="8" height="8" fill="white"/>
</clipPath>
</defs>
</svg>
