<svg preserveAspectRatio="none" width="100%" height="100%" overflow="visible" style="display: block;" viewBox="0 0 18.9999 20" fill="none" xmlns="http://www.w3.org/2000/svg">
<path id="icon" fill-rule="evenodd" clip-rule="evenodd" d="M4 0C6.20914 0 8 1.79086 8 4C8 4.55419 7.88635 5.08165 7.68262 5.56152L10 7.87891L16.4395 1.43945C17.0252 0.853673 17.9748 0.853673 18.5605 1.43945C19.1463 2.02524 19.1463 2.97476 18.5605 3.56055L12.1211 10L18.5605 16.4395C19.1463 17.0252 19.1463 17.9748 18.5605 18.5605C17.9748 19.1463 17.0252 19.1463 16.4395 18.5605L10 12.1211L7.68262 14.4375C7.88657 14.9176 8 15.4455 8 16C8 18.2091 6.20914 20 4 20C1.79086 20 0 18.2091 0 16C0 13.7909 1.79086 12 4 12C4.55405 12 5.08174 12.1128 5.56152 12.3164L7.87891 10L5.56152 7.68262C5.08165 7.88635 4.55419 8 4 8C1.79086 8 0 6.20914 0 4C0 1.79086 1.79086 0 4 0ZM4 14C2.89543 14 2 14.8954 2 16C2 17.1046 2.89543 18 4 18C5.10457 18 6 17.1046 6 16C6 14.8954 5.10457 14 4 14ZM4 2C2.89543 2 2 2.89543 2 4C2 5.10457 2.89543 6 4 6C5.10457 6 6 5.10457 6 4C6 2.89543 5.10457 2 4 2Z" fill="var(--fill-0, #002749)"/>
</svg>
