<svg preserveAspectRatio="none" width="100%" height="100%" overflow="visible" style="display: block;" viewBox="0 0 21.0002 19.5042" fill="none" xmlns="http://www.w3.org/2000/svg">
<g id="icon">
<path d="M16.5829 19.5042H8C6.89543 19.5042 6 18.6088 6 17.5042V7.33261C6 6.80217 6.21071 6.29347 6.58579 5.91839L12.043 0.461144C13.1546 -0.65046 15.0241 0.407978 14.6428 1.93309L13.5 6.50418H17.9981C20.0165 6.50418 21.459 8.45728 20.8655 10.3864L18.4944 18.0924C18.2362 18.9315 17.4609 19.5042 16.5829 19.5042Z" fill="var(--fill-0, #002749)"/>
<path d="M0 8.50418C0 7.39961 0.895431 6.50418 2 6.50418C3.10457 6.50418 4 7.39961 4 8.50418V17.5042C4 18.6088 3.10457 19.5042 2 19.5042C0.895431 19.5042 0 18.6087 0 17.5042V8.50418Z" fill="var(--fill-0, #002749)"/>
</g>
</svg>
