<svg preserveAspectRatio="none" width="100%" height="100%" overflow="visible" style="display: block;" viewBox="0 0 10.8333 8.66667" fill="none" xmlns="http://www.w3.org/2000/svg">
<g id="icon">
<path d="M4.98344 1.21875C4.98344 1.89185 4.43779 2.4375 3.76469 2.4375C3.09159 2.4375 2.54594 1.89185 2.54594 1.21875C2.54594 0.545653 3.09159 0 3.76469 0C4.43779 0 4.98344 0.545653 4.98344 1.21875Z" fill="var(--fill-0, #002749)"/>
<path d="M2.4375 3.38542C2.4375 4.05851 1.89185 4.60417 1.21875 4.60417C0.545653 4.60417 0 4.05851 0 3.38542C0 2.71232 0.545653 2.16667 1.21875 2.16667C1.89185 2.16667 2.4375 2.71232 2.4375 3.38542Z" fill="var(--fill-0, #002749)"/>
<path d="M8.28739 1.21875C8.28739 1.89185 7.74174 2.4375 7.06864 2.4375C6.39555 2.4375 5.84989 1.89185 5.84989 1.21875C5.84989 0.545653 6.39555 0 7.06864 0C7.74174 0 8.28739 0.545653 8.28739 1.21875Z" fill="var(--fill-0, #002749)"/>
<path d="M10.8333 3.38542C10.8333 4.05851 10.2877 4.60417 9.61458 4.60417C8.94149 4.60417 8.39583 4.05851 8.39583 3.38542C8.39583 2.71232 8.94149 2.16667 9.61458 2.16667C10.2877 2.16667 10.8333 2.71232 10.8333 3.38542Z" fill="var(--fill-0, #002749)"/>
<path d="M8.66667 6.48407C8.66667 8.125 7.04167 8.66667 5.41667 8.66667C3.79167 8.66667 2.16667 8.125 2.16667 6.48407C2.16667 4.76667 3.79167 3.25 5.41667 3.25C7.04167 3.25 8.66667 4.84314 8.66667 6.48407Z" fill="var(--fill-0, #002749)"/>
</g>
</svg>
