<svg preserveAspectRatio="none" width="100%" height="100%" overflow="visible" style="display: block;" viewBox="0 0 9.99984 9.99984" fill="none" xmlns="http://www.w3.org/2000/svg">
<path id="inverse" fill-rule="evenodd" clip-rule="evenodd" d="M9.70696 0.292893C9.31643 -0.0976311 8.68342 -0.0976311 8.29289 0.292893L4.99992 3.58586L1.70696 0.292893C1.31643 -0.0976311 0.683418 -0.0976311 0.292893 0.292893C-0.0976311 0.683418 -0.0976311 1.31643 0.292893 1.70696L3.58586 4.99992L0.292893 8.29289C-0.0976311 8.68342 -0.0976311 9.31643 0.292893 9.70696C0.683419 10.0975 1.31644 10.0975 1.70696 9.70696L4.99992 6.41399L8.29289 9.70696C8.68342 10.0975 9.31644 10.0975 9.70696 9.70696C10.0975 9.31644 10.0975 8.68342 9.70696 8.29289L6.41399 4.99992L9.70696 1.70696C10.0975 1.31644 10.0975 0.683419 9.70696 0.292893Z" fill="var(--fill-0, white)"/>
</svg>
