<svg preserveAspectRatio="none" width="100%" height="100%" overflow="visible" style="display: block;" viewBox="0 0 20 16" fill="none" xmlns="http://www.w3.org/2000/svg">
<g id="icon">
<path d="M9.2002 2.25C9.2002 3.49264 8.19284 4.5 6.9502 4.5C5.70755 4.5 4.7002 3.49264 4.7002 2.25C4.7002 1.00736 5.70755 0 6.9502 0C8.19284 0 9.2002 1.00736 9.2002 2.25Z" fill="var(--fill-0, #002749)"/>
<path d="M4.5 6.25C4.5 7.49264 3.49264 8.5 2.25 8.5C1.00736 8.5 0 7.49264 0 6.25C0 5.00736 1.00736 4 2.25 4C3.49264 4 4.5 5.00736 4.5 6.25Z" fill="var(--fill-0, #002749)"/>
<path d="M15.2998 2.25C15.2998 3.49264 14.2924 4.5 13.0498 4.5C11.8072 4.5 10.7998 3.49264 10.7998 2.25C10.7998 1.00736 11.8072 0 13.0498 0C14.2924 0 15.2998 1.00736 15.2998 2.25Z" fill="var(--fill-0, #002749)"/>
<path d="M20 6.25C20 7.49264 18.9926 8.5 17.75 8.5C16.5074 8.5 15.5 7.49264 15.5 6.25C15.5 5.00736 16.5074 4 17.75 4C18.9926 4 20 5.00736 20 6.25Z" fill="var(--fill-0, #002749)"/>
<path d="M16 11.9706C16 15 13 16 10 16C7 16 4 15 4 11.9706C4 8.8 7 6 10 6C13 6 16 8.94118 16 11.9706Z" fill="var(--fill-0, #002749)"/>
</g>
</svg>
