<svg width="24" height="24" viewBox="0 0 24 24" fill="none" xmlns="http://www.w3.org/2000/svg">
<path d="M6 22C5.45 22 4.97917 21.8042 4.5875 21.4125C4.19583 21.0208 4 20.55 4 20V4C4 3.45 4.19583 2.97917 4.5875 2.5875C4.97917 2.19583 5.45 2 6 2H18C18.55 2 19.0208 2.19583 19.4125 2.5875C19.8042 2.97917 20 3.45 20 4V20C20 20.55 19.8042 21.0208 19.4125 21.4125C19.0208 21.8042 18.55 22 18 22H6ZM11 17L9.775 15.375C9.675 15.2417 9.5375 15.175 9.3625 15.175C9.1875 15.175 9.05 15.2417 8.95 15.375L7.575 17.225C7.45833 17.3917 7.44583 17.5625 7.5375 17.7375C7.62917 17.9125 7.775 18 7.975 18H16C16.2 18 16.3458 17.9125 16.4375 17.7375C16.5292 17.5625 16.5167 17.3833 16.4 17.2L14.025 14.05C13.925 13.9167 13.7917 13.85 13.625 13.85C13.4583 13.85 13.325 13.9167 13.225 14.05L11 17ZM11 4V10.125C11 10.325 11.0792 10.4708 11.2375 10.5625C11.3958 10.6542 11.5667 10.65 11.75 10.55L12.975 9.825C13.1417 9.725 13.3125 9.675 13.4875 9.675C13.6625 9.675 13.8333 9.725 14 9.825L15.225 10.55C15.4083 10.65 15.5833 10.6542 15.75 10.5625C15.9167 10.4708 16 10.325 16 10.125V4H11Z" fill="#002749"/>
</svg>
