<svg preserveAspectRatio="none" width="100%" height="100%" overflow="visible" style="display: block;" viewBox="0 0 24 24" fill="none" xmlns="http://www.w3.org/2000/svg">
<g id="icon / thumb_up" opacity="0.1">
<g id="icon">
<path d="M18.0828 21.5042H9.49991C8.39534 21.5042 7.49991 20.6088 7.49991 19.5042V9.33261C7.49991 8.80217 7.71062 8.29347 8.08569 7.91839L13.5429 2.46114C14.6545 1.34954 16.524 2.40798 16.1427 3.93309L14.9999 8.50418H19.498C21.5164 8.50418 22.959 10.4573 22.3654 12.3864L19.9943 20.0924C19.7361 20.9315 18.9608 21.5042 18.0828 21.5042Z" fill="var(--fill-0, #002749)"/>
<path d="M1.49991 10.5042C1.49991 9.39961 2.39534 8.50418 3.49991 8.50418C4.60448 8.50418 5.49991 9.39961 5.49991 10.5042V19.5042C5.49991 20.6088 4.60448 21.5042 3.49991 21.5042C2.39534 21.5042 1.49991 20.6087 1.49991 19.5042V10.5042Z" fill="var(--fill-0, #002749)"/>
</g>
</g>
</svg>
