<svg width="24" height="24" viewBox="0 0 24 24" fill="none" xmlns="http://www.w3.org/2000/svg">
<path fill-rule="evenodd" clip-rule="evenodd" d="M12 2C14.2091 2 16 3.79086 16 6H18C19.1046 6 20 6.89543 20 8V20C20 21.1046 19.1046 22 18 22H6C4.89543 22 4 21.1046 4 20V8C4 6.89543 4.89543 6 6 6H8C8 3.79086 9.79086 2 12 2ZM8 8V10C8 10.5523 8.44772 11 9 11C9.55228 11 10 10.5523 10 10V8H8ZM14 8V10C14 10.5523 14.4477 11 15 11C15.5523 11 16 10.5523 16 10V8H14ZM12 4C10.8954 4 10 4.89543 10 6H14C14 4.89543 13.1046 4 12 4Z" fill="#002749"/>
</svg>
