<svg width="24" height="24" viewBox="0 0 24 24" fill="none" xmlns="http://www.w3.org/2000/svg">
<path d="M12 1.5C9.81273 1.50248 7.71575 2.37247 6.16911 3.91911C4.62247 5.46575 3.75248 7.56273 3.75 9.75C3.75 11.9466 4.63125 14.3831 6.10594 16.2656C7.23844 17.7103 8.59031 18.7031 10.035 19.1803L9.06094 21.4547C9.01208 21.5687 8.99229 21.6931 9.00332 21.8167C9.01436 21.9403 9.05588 22.0592 9.12416 22.1628C9.19245 22.2664 9.28536 22.3514 9.39459 22.4103C9.50381 22.4691 9.62593 22.4999 9.75 22.5H14.25C14.3741 22.4999 14.4962 22.4691 14.6054 22.4103C14.7146 22.3514 14.8076 22.2664 14.8758 22.1628C14.9441 22.0592 14.9856 21.9403 14.9967 21.8167C15.0077 21.6931 14.9879 21.5687 14.9391 21.4547L13.9688 19.1803C15.4125 18.705 16.7653 17.7103 17.8978 16.2656C19.3688 14.3831 20.25 11.9466 20.25 9.75C20.2475 7.56273 19.3775 5.46575 17.8309 3.91911C16.2843 2.37247 14.1873 1.50248 12 1.5ZM16.6238 9.73969C16.5828 9.74633 16.5415 9.74978 16.5 9.75C16.3227 9.74977 16.1512 9.68674 16.016 9.5721C15.8808 9.45746 15.7905 9.29861 15.7612 9.12375C15.6226 8.34331 15.2477 7.62426 14.6872 7.06377C14.1267 6.50327 13.4076 6.12836 12.6272 5.98969C12.5293 5.97425 12.4355 5.93957 12.3511 5.88765C12.2667 5.83574 12.1934 5.76762 12.1355 5.68723C12.0776 5.60684 12.0362 5.51577 12.0137 5.41929C11.9912 5.3228 11.988 5.22282 12.0044 5.1251C12.0207 5.02738 12.0563 4.93387 12.109 4.84997C12.1616 4.76606 12.2304 4.69343 12.3114 4.63627C12.3923 4.57911 12.4837 4.53855 12.5804 4.51693C12.6771 4.49531 12.7771 4.49306 12.8747 4.51031C13.962 4.70324 14.9638 5.22544 15.7447 6.00628C16.5255 6.78713 17.0477 7.78895 17.2406 8.87625C17.2569 8.97345 17.2538 9.07291 17.2316 9.16892C17.2093 9.26493 17.1684 9.35562 17.1111 9.43581C17.0538 9.516 16.9813 9.58411 16.8977 9.63625C16.8141 9.68839 16.721 9.72354 16.6238 9.73969Z" fill="#002749"/>
</svg>
