<svg width="24" height="24" viewBox="0 0 24 24" fill="none" xmlns="http://www.w3.org/2000/svg">
<path d="M12 22C13.4806 22 14.7733 21.1956 15.4649 20H8.53513C9.22675 21.1956 10.5194 22 12 22Z" fill="#002749"/>
<path d="M12 2C10.4563 2 9.18496 3.16592 9.01848 4.66519C6.64462 5.78438 5 8.19905 5 11V13.0824C5 13.773 4.76497 14.443 4.33358 14.9822L3.21913 16.3753C2.979 16.6755 2.93218 17.0867 3.0987 17.4332C3.26522 17.7797 3.6156 18 4 18H8H16H20C20.3844 18 20.7348 17.7797 20.9013 17.4332C21.0678 17.0867 21.021 16.6755 20.7809 16.3753L19.6664 14.9822C19.235 14.443 19 13.773 19 13.0824V11C19 8.19905 17.3554 5.78439 14.9815 4.66519C14.815 3.16592 13.5437 2 12 2Z" fill="#002749"/>
</svg>
