<svg width="24" height="24" viewBox="0 0 24 24" fill="none" xmlns="http://www.w3.org/2000/svg">
<path d="M14.5 2C16.433 2 18 3.567 18 5.5C18 5.68402 17.9854 5.86466 17.958 6.04102C18.1346 6.01357 18.3157 6 18.5 6C20.433 6 22 7.567 22 9.5C22 11.433 20.433 13 18.5 13C17.5949 13 16.7698 12.6566 16.1484 12.0928L12.0928 16.1484C12.6566 16.7698 13 17.5949 13 18.5C13 20.433 11.433 22 9.5 22C7.567 22 6 20.433 6 18.5C6 18.3157 6.01357 18.1346 6.04102 17.958C5.86466 17.9854 5.68402 18 5.5 18C3.567 18 2 16.433 2 14.5C2 12.567 3.567 11 5.5 11C6.40464 11 7.22937 11.3429 7.85059 11.9062L11.9062 7.85059C11.3429 7.22937 11 6.40464 11 5.5C11 3.567 12.567 2 14.5 2Z" fill="#002749"/>
</svg>
