<svg width="24" height="24" viewBox="0 0 24 24" fill="none" xmlns="http://www.w3.org/2000/svg">
<path fill-rule="evenodd" clip-rule="evenodd" d="M2 3C2 2.44772 2.44772 2 3 2H5C5.49765 2 5.91957 2.36593 5.98995 2.85858L6.22444 4.5H21C21.3079 4.5 21.5987 4.64187 21.7882 4.88459C21.9777 5.1273 22.0448 5.44379 21.9701 5.74254L19.9701 13.7425C19.8589 14.1877 19.4589 14.5 19 14.5H7.65301L7.8673 16H18C19.6569 16 21 17.3431 21 19C21 20.6569 19.6569 22 18 22C16.3431 22 15 20.6569 15 19C15 18.6494 15.0602 18.3128 15.1707 18H10.8293C10.9398 18.3128 11 18.6494 11 19C11 20.6569 9.65685 22 8 22C6.34315 22 5 20.6569 5 19C5 18.1304 5.37 17.3472 5.96117 16.7993L4.1327 4H3C2.44772 4 2 3.55228 2 3Z" fill="#002749"/>
</svg>
