<svg width="24" height="24" viewBox="0 0 24 24" fill="none" xmlns="http://www.w3.org/2000/svg">
<path fill-rule="evenodd" clip-rule="evenodd" d="M4.92982 4.92864C8.83505 1.02389 15.1663 1.02369 19.0714 4.92864C22.9764 8.83385 22.9764 15.166 19.0714 19.0712C16.0358 22.1067 11.5343 22.7812 7.84583 21.0976L2.75599 22.4618C2.01263 22.6609 1.33252 21.9806 1.53138 21.2372L2.89661 16.1415C1.22031 12.4553 1.89769 7.96076 4.92982 4.92864ZM7.50013 13.9999C6.94784 13.9999 6.50013 14.4476 6.50013 14.9999C6.50016 15.5522 6.94786 15.9999 7.50013 15.9999H15.0001C15.5523 15.9998 16.0001 15.5521 16.0001 14.9999C16.0001 14.4477 15.5523 14 15.0001 13.9999H7.50013ZM7.50013 8.99993C6.94784 8.99993 6.50013 9.44764 6.50013 9.99993C6.50016 10.5522 6.94786 10.9999 7.50013 10.9999H17.0001C17.5523 10.9998 18.0001 10.5521 18.0001 9.99993C18.0001 9.44769 17.5523 9.00001 17.0001 8.99993H7.50013Z" fill="#002749"/>
</svg>
