<svg width="24" height="24" viewBox="0 0 24 24" fill="none" xmlns="http://www.w3.org/2000/svg">
<path d="M12.0008 20.9084C10.1556 20.9215 8.35333 20.3523 6.8505 19.2816C6.41047 19.805 5.84937 20.2132 5.21586 20.4707C4.54086 20.7621 3.28197 21.1953 3.05697 20.9027C2.83197 20.6102 3.33147 20.2896 3.54748 19.3986C3.87074 18.386 4.06503 17.3367 4.12573 16.2755C3.38175 14.9576 2.99401 13.4687 3.00072 11.9554C2.98856 10.3742 3.40452 8.81916 4.20448 7.45522C4.99869 6.0937 6.13728 4.96521 7.50581 4.18318C8.87434 3.40114 10.4246 2.99311 12.0008 3.00009C13.5772 2.99377 15.1276 3.40257 16.4959 4.18541C17.8643 4.96825 19.0024 6.09753 19.796 7.45972C20.5958 8.82373 21.0117 10.3787 20.9997 11.9599C21.0107 13.5391 20.5948 15.092 19.796 16.4544C19.0017 17.8155 17.8633 18.9437 16.495 19.7255C15.1266 20.5073 13.5767 20.9153 12.0008 20.9084ZM8.62577 10.8348C8.47764 10.8325 8.33054 10.8599 8.19316 10.9153C8.05578 10.9708 7.9309 11.0532 7.82589 11.1577C7.72006 11.2615 7.636 11.3854 7.57861 11.522C7.52123 11.6587 7.49167 11.8054 7.49167 11.9537C7.49167 12.1019 7.52123 12.2486 7.57861 12.3853C7.636 12.522 7.72006 12.6458 7.82589 12.7496C7.9308 12.8543 8.05564 12.937 8.19303 12.9926C8.33041 13.0483 8.47756 13.0758 8.62577 13.0736C8.77325 13.075 8.91942 13.0457 9.05499 12.9876C9.19055 12.9295 9.31256 12.8439 9.41328 12.7361C9.62185 12.5271 9.73898 12.2439 9.73898 11.9486C9.73898 11.6533 9.62185 11.3701 9.41328 11.1611C9.31256 11.0533 9.19055 10.9677 9.05499 10.9096C8.91942 10.8515 8.77325 10.8222 8.62577 10.8236V10.8348ZM12.0008 10.8348C11.8527 10.8325 11.7056 10.8599 11.5682 10.9153C11.4308 10.9708 11.3059 11.0532 11.2009 11.1577C11.0927 11.258 11.0067 11.38 10.9485 11.5156C10.8904 11.6513 10.8614 11.7976 10.8634 11.9452C10.8589 12.17 10.9215 12.391 11.043 12.5802C11.1645 12.7693 11.3396 12.918 11.5459 13.0074C11.7522 13.0967 11.9805 13.1226 12.2015 13.0818C12.4226 13.0411 12.6266 12.9354 12.7875 12.7784C12.9483 12.6213 13.0588 12.4199 13.1049 12.1999C13.151 11.9798 13.1305 11.7511 13.0462 11.5427C12.9618 11.3343 12.8174 11.1557 12.6312 11.0296C12.4451 10.9036 12.2256 10.8358 12.0008 10.8348ZM15.3758 10.8348C15.2265 10.8335 15.0785 10.8627 14.941 10.9208C14.8034 10.9788 14.6792 11.0644 14.5759 11.1723C14.4702 11.2744 14.3861 11.3968 14.3287 11.5321C14.2712 11.6674 14.2416 11.8129 14.2416 11.9599C14.2416 12.1068 14.2712 12.2523 14.3287 12.3876C14.3861 12.5229 14.4702 12.6453 14.5759 12.7474C14.6792 12.8553 14.8034 12.9409 14.941 12.9989C15.0785 13.057 15.2265 13.0862 15.3758 13.0849C15.5233 13.0863 15.6695 13.057 15.805 12.9989C15.9406 12.9408 16.0626 12.8551 16.1633 12.7474C16.3719 12.5384 16.489 12.2551 16.489 11.9599C16.489 11.6646 16.3719 11.3813 16.1633 11.1723C16.0626 11.0646 15.9406 10.9789 15.805 10.9208C15.6695 10.8627 15.5233 10.8334 15.3758 10.8348Z" fill="#002749"/>
</svg>
