<svg width="24" height="24" viewBox="0 0 24 24" fill="none" xmlns="http://www.w3.org/2000/svg">
<path fill-rule="evenodd" clip-rule="evenodd" d="M12 2C17.5228 2 22 6.47715 22 12C22 17.5228 17.5228 22 12 22C6.47715 22 2 17.5228 2 12C2 6.47715 6.47715 2 12 2ZM16.707 7.29297C16.3165 6.90244 15.6835 6.90244 15.293 7.29297L12 10.5859L8.70703 7.29297C8.31651 6.90244 7.68349 6.90244 7.29297 7.29297C6.90244 7.68349 6.90244 8.31651 7.29297 8.70703L10.5859 12L7.29297 15.293C6.90244 15.6835 6.90244 16.3165 7.29297 16.707C7.68349 17.0975 8.31651 17.0976 8.70703 16.707L12 13.4141L15.293 16.707C15.6835 17.0975 16.3165 17.0976 16.707 16.707C17.0976 16.3165 17.0975 15.6835 16.707 15.293L13.4141 12L16.707 8.70703C17.0976 8.31651 17.0975 7.68349 16.707 7.29297Z" fill="#002749"/>
<path fill-rule="evenodd" clip-rule="evenodd" d="M16.707 7.29289C16.3165 6.90237 15.6835 6.90237 15.293 7.29289L12 10.5859L8.70703 7.29289C8.31651 6.90237 7.68349 6.90237 7.29297 7.29289C6.90245 7.68342 6.90245 8.31643 7.29297 8.70696L10.5859 11.9999L7.29297 15.2929C6.90245 15.6834 6.90245 16.3164 7.29297 16.707C7.68349 17.0975 8.31651 17.0975 8.70703 16.707L12 13.414L15.293 16.707C15.6835 17.0975 16.3165 17.0975 16.707 16.707C17.0976 16.3164 17.0975 15.6834 16.707 15.2929L13.4141 11.9999L16.707 8.70696C17.0976 8.31644 17.0975 7.68342 16.707 7.29289Z" fill="white"/>
</svg>
