<svg width="24" height="24" viewBox="0 0 24 24" fill="none" xmlns="http://www.w3.org/2000/svg">
<path d="M12 1C12.6333 1 13.2046 1.18314 13.7129 1.5498C14.2211 1.91644 14.5832 2.40009 14.7998 3H19C19.55 3 20.0204 3.19622 20.4121 3.58789C20.8038 3.97956 21 4.45 21 5V19C21 19.55 20.8038 20.0204 20.4121 20.4121C20.0204 20.8038 19.55 21 19 21H5C4.45 21 3.97956 20.8038 3.58789 20.4121C3.19622 20.0204 3 19.55 3 19V5C3 4.45 3.19622 3.97956 3.58789 3.58789C3.97956 3.19622 4.45 3 5 3H9.2002C9.41684 2.40009 9.77888 1.91644 10.2871 1.5498C10.7954 1.18314 11.3667 1 12 1ZM12 10.833C10.25 10.833 8.5 12.4669 8.5 14.3164C8.50015 16.0834 10.2501 16.667 12 16.667C13.7499 16.667 15.4998 16.0834 15.5 14.3164C15.5 12.5492 13.75 10.833 12 10.833ZM7.47949 9.66699C6.75462 9.66699 6.16699 10.2546 6.16699 10.9795C6.16717 11.7042 6.75473 12.292 7.47949 12.292C8.20411 12.2918 8.79182 11.7041 8.79199 10.9795C8.79199 10.2547 8.20422 9.66717 7.47949 9.66699ZM16.5205 9.66699C15.7958 9.66717 15.208 10.2547 15.208 10.9795C15.2082 11.7041 15.7959 12.2918 16.5205 12.292C17.2453 12.292 17.8328 11.7042 17.833 10.9795C17.833 10.2546 17.2454 9.66699 16.5205 9.66699ZM10.2207 7.33301C9.49605 7.33314 8.90838 7.92087 8.9082 8.64551C8.9082 9.3703 9.49594 9.95788 10.2207 9.95801C10.9456 9.95801 11.5332 9.37038 11.5332 8.64551C11.533 7.92078 10.9455 7.33301 10.2207 7.33301ZM13.7793 7.33301C13.0545 7.33301 12.467 7.92078 12.4668 8.64551C12.4668 9.37038 13.0544 9.95801 13.7793 9.95801C14.5041 9.95788 15.0918 9.3703 15.0918 8.64551C15.0916 7.92086 14.504 7.33314 13.7793 7.33301ZM12 2.75C11.7833 2.75 11.6046 2.82122 11.4629 2.96289C11.3212 3.10456 11.25 3.28333 11.25 3.5C11.25 3.71667 11.3212 3.89544 11.4629 4.03711C11.6046 4.17878 11.7833 4.25 12 4.25C12.2167 4.25 12.3954 4.17878 12.5371 4.03711C12.6788 3.89544 12.75 3.71667 12.75 3.5C12.75 3.28333 12.6788 3.10456 12.5371 2.96289C12.3954 2.82122 12.2167 2.75 12 2.75Z" fill="#002749"/>
</svg>
