<svg width="24" height="24" viewBox="0 0 24 24" fill="none" xmlns="http://www.w3.org/2000/svg">
<path d="M12 5.00146C12.3344 5.00146 12.6466 5.16858 12.8321 5.44678L16.2266 10.5386L20.375 7.22021L20.5039 7.1333C20.8161 6.95477 21.2054 6.95597 21.5196 7.14697C21.8786 7.36548 22.0629 7.78561 21.9805 8.19775L19.9805 18.1978C19.8869 18.6651 19.4766 19.0015 19 19.0015H5.00002C4.52341 19.0015 4.11311 18.6651 4.01956 18.1978L2.01956 8.19775C1.93713 7.78561 2.12146 7.36548 2.48049 7.14697C2.83947 6.92871 3.29694 6.95775 3.62502 7.22021L7.77249 10.5386L11.168 5.44678L11.2432 5.34814C11.4318 5.12963 11.7074 5.00146 12 5.00146Z" fill="#002749"/>
</svg>
