<svg width="24" height="24" viewBox="0 0 24 24" fill="none" xmlns="http://www.w3.org/2000/svg">
<path d="M15.6605 4.33203C16.8122 4.34606 18.3315 5.00044 18.7093 6.51172L20.9642 6.88672C21.4054 6.96038 21.7489 7.31833 21.7494 7.76562C21.751 9.36701 21.2554 11.6707 19.2093 12.0117C16.2096 12.5115 13.7093 11.5118 13.7093 13.5117C17.6375 13.9045 19.7141 14.9146 20.6664 15.8145C21.052 16.1789 20.9566 16.7644 20.5814 17.1396C20.1 17.621 19.239 17.7135 18.5804 17.541C17.7434 17.3218 16.5436 17.1344 15.224 17.0508C16.2967 17.2139 17.8924 17.6011 19.1302 18.5146C19.4972 18.7858 19.5716 19.2871 19.3675 19.6953C19.0436 20.3426 18.0496 20.6638 17.3685 20.4189C15.9739 19.9174 13.7936 19.2758 12.2093 19.0117C10.4991 18.7268 8.85662 19.2709 7.75229 19.8486C7.18826 20.1437 6.44138 19.9745 6.15659 19.4053L2.41147 11.9141C2.02773 11.1466 2.35503 10.2141 3.13413 9.85449L7.97104 7.62109C7.99937 7.71752 8.0313 7.8138 8.0687 7.90918C8.45969 8.90557 9.24109 9.61302 10.2142 9.79688C11.1888 9.9808 12.1741 9.60541 12.8988 8.81348C13.3172 8.35629 13.8101 7.89404 14.4574 7.46289C15.4243 6.81883 16.0378 5.56034 15.6605 4.33203Z" fill="#002749"/>
<path d="M10.4273 4.39614L12.6595 3.59265C13.4212 3.31849 14.2668 3.66454 14.6177 4.394C15.0022 5.19303 14.6415 6.13935 13.9036 6.6309C13.1734 7.11724 12.6199 7.63699 12.1609 8.13854C11.1117 9.28512 9.56766 8.991 8.99994 7.54423C8.50391 6.28015 9.1496 4.85604 10.4273 4.39614Z" fill="#002749"/>
</svg>
