<svg width="24" height="24" viewBox="0 0 24 24" fill="none" xmlns="http://www.w3.org/2000/svg">
<path d="M5 21C4.45 21 3.97917 20.8042 3.5875 20.4125C3.19583 20.0208 3 19.55 3 19V5C3 4.45 3.19583 3.97917 3.5875 3.5875C3.97917 3.19583 4.45 3 5 3H11C11.2833 3 11.5208 3.09583 11.7125 3.2875C11.9042 3.47917 12 3.71667 12 4C12 4.28333 11.9042 4.52083 11.7125 4.7125C11.5208 4.90417 11.2833 5 11 5H5V19H19V13C19 12.7167 19.0958 12.4792 19.2875 12.2875C19.4792 12.0958 19.7167 12 20 12C20.2833 12 20.5208 12.0958 20.7125 12.2875C20.9042 12.4792 21 12.7167 21 13V19C21 19.55 20.8042 20.0208 20.4125 20.4125C20.0208 20.8042 19.55 21 19 21H5Z" fill="#002749"/>
<path d="M10.707 14.707C10.3165 15.0975 9.68348 15.0975 9.29295 14.707C8.90243 14.3165 8.90243 13.6835 9.29295 13.293L16.293 6.29294L14.7071 4.70711C14.0772 4.07714 14.5233 3 15.4142 3H20C20.5523 3 21 3.44772 21 4V8.58579C21 9.47669 19.9229 9.92286 19.2929 9.29289L17.707 7.70701L10.707 14.707Z" fill="#002749"/>
</svg>
