<svg width="24" height="24" viewBox="0 0 24 24" fill="none" xmlns="http://www.w3.org/2000/svg">
<path fill-rule="evenodd" clip-rule="evenodd" d="M4.45112 10.7321C4.09854 11.4152 4 11.8672 4 12C4 12.1328 4.09854 12.5848 4.45112 13.2679C4.78355 13.912 5.2905 14.6607 5.97139 15.37C7.32918 16.7843 9.33268 18 12 18C14.6673 18 16.6708 16.7843 18.0286 15.37C18.7095 14.6607 19.2165 13.912 19.5489 13.2679C19.9015 12.5848 20 12.1328 20 12C20 11.8672 19.9015 11.4152 19.5489 10.7321C19.2165 10.088 18.7095 9.33929 18.0286 8.63003C16.6708 7.21567 14.6673 6 12 6C9.33268 6 7.32918 7.21567 5.97139 8.63003C5.2905 9.33929 4.78355 10.088 4.45112 10.7321ZM4.52861 7.24497C6.17082 5.53433 8.66732 4 12 4C15.3327 4 17.8292 5.53433 19.4714 7.24497C20.2905 8.09821 20.9085 9.00574 21.3261 9.81479C21.7235 10.5848 22 11.3828 22 12C22 12.6172 21.7235 13.4152 21.3261 14.1852C20.9085 14.9943 20.2905 15.9018 19.4714 16.755C17.8292 18.4657 15.3327 20 12 20C8.66732 20 6.17082 18.4657 4.52861 16.755C3.7095 15.9018 3.09145 14.9943 2.67388 14.1852C2.27646 13.4152 2 12.6172 2 12C2 11.3828 2.27646 10.5848 2.67388 9.81479C3.09145 9.00574 3.7095 8.09821 4.52861 7.24497Z" fill="#002749"/>
<path d="M12 16C14.2091 16 16 14.2091 16 12C16 11.59 15.9383 11.1945 15.8238 10.8221C15.5102 11.5166 14.8115 12 14 12C12.8954 12 12 11.1046 12 10C12 9.18846 12.4834 8.48982 13.1779 8.17624C12.8055 8.06167 12.41 8 12 8C9.79086 8 8 9.79086 8 12C8 14.2091 9.79086 16 12 16Z" fill="#002749"/>
</svg>
