<svg width="24" height="24" viewBox="0 0 24 24" fill="none" xmlns="http://www.w3.org/2000/svg">
<path fill-rule="evenodd" clip-rule="evenodd" d="M12 2C17.5228 2 22 6.47715 22 12C22 17.5228 17.5228 22 12 22C6.47715 22 2 17.5228 2 12C2 6.47715 6.47715 2 12 2ZM8.33887 14C7.63498 14.0001 7.16221 14.7123 7.58203 15.2773C8.58435 16.6263 10.1903 17.5 12 17.5C13.8097 17.5 15.4157 16.6263 16.418 15.2773C16.8378 14.7123 16.365 14.0001 15.6611 14H8.33887ZM8.5 8C7.67157 8 7 8.67157 7 9.5C7 10.3284 7.67157 11 8.5 11C9.32843 11 10 10.3284 10 9.5C10 8.67157 9.32843 8 8.5 8ZM15.5 8C14.6716 8 14 8.67157 14 9.5C14 10.3284 14.6716 11 15.5 11C16.3284 11 17 10.3284 17 9.5C17 8.67157 16.3284 8 15.5 8Z" fill="#002749"/>
</svg>
