<svg width="24" height="24" viewBox="0 0 24 24" fill="none" xmlns="http://www.w3.org/2000/svg">
<path d="M16.001 4C17.7303 4.00009 19.2623 4.5825 20.3564 5.75488C21.4442 6.92054 22 8.5624 22 10.5C22 12.2916 21.1264 14.502 19.541 16.5498C17.9377 18.6207 15.5489 20.6044 12.3848 21.9229C12.1386 22.0254 11.8614 22.0254 11.6152 21.9229C8.45112 20.6044 6.06227 18.6207 4.45898 16.5498C2.87358 14.502 2 12.2916 2 10.5C2 8.5624 2.55579 6.92054 3.64355 5.75488C4.73769 4.5825 6.26974 4.00009 7.99902 4C9.46913 4 10.6147 4.45086 11.457 5.29297C11.6606 5.49657 11.8406 5.71705 12 5.9502C12.1594 5.71705 12.3393 5.49657 12.543 5.29297C13.3853 4.45086 14.5309 4 16.001 4ZM12 11.833C10.25 11.833 8.5 13.4669 8.5 15.3164C8.50015 17.0834 10.2501 17.667 12 17.667C13.7499 17.667 15.4998 17.0834 15.5 15.3164C15.5 13.5492 13.75 11.833 12 11.833ZM7.47949 10.667C6.75462 10.667 6.16699 11.2546 6.16699 11.9795C6.16717 12.7042 6.75473 13.292 7.47949 13.292C8.20411 13.2918 8.79182 12.7041 8.79199 11.9795C8.79199 11.2547 8.20422 10.6672 7.47949 10.667ZM16.5205 10.667C15.7958 10.6672 15.208 11.2547 15.208 11.9795C15.2082 12.7041 15.7959 13.2918 16.5205 13.292C17.2453 13.292 17.8328 12.7042 17.833 11.9795C17.833 11.2546 17.2454 10.667 16.5205 10.667ZM10.2207 8.33301C9.49605 8.33314 8.90838 8.92087 8.9082 9.64551C8.9082 10.3703 9.49594 10.9579 10.2207 10.958C10.9456 10.958 11.5332 10.3704 11.5332 9.64551C11.533 8.92078 10.9455 8.33301 10.2207 8.33301ZM13.7793 8.33301C13.0545 8.33301 12.467 8.92078 12.4668 9.64551C12.4668 10.3704 13.0544 10.958 13.7793 10.958C14.5041 10.9579 15.0918 10.3703 15.0918 9.64551C15.0916 8.92086 14.504 8.33314 13.7793 8.33301Z" fill="#002749"/>
</svg>
