<svg width="24" height="24" viewBox="0 0 24 24" fill="none" xmlns="http://www.w3.org/2000/svg">
<path fill-rule="evenodd" clip-rule="evenodd" d="M3.6436 5.75524C4.73783 4.58266 6.26989 4 7.99942 4C9.46953 4 10.6144 4.4507 11.4567 5.29281C11.6605 5.49654 11.8405 5.7172 12 5.95051C12.1595 5.7172 12.3395 5.49654 12.5433 5.29281C13.3856 4.4507 14.5305 4 16.0006 4C17.7301 4 19.2622 4.58266 20.3564 5.75524C21.4442 6.9209 22 8.5624 22 10.5C22 12.2917 21.1262 14.5018 19.5407 16.5497C17.9374 18.6206 15.5488 20.6047 12.3846 21.9231C12.1385 22.0256 11.8615 22.0256 11.6154 21.9231C8.45116 20.6047 6.06259 18.6206 4.45928 16.5497C2.87385 14.5018 2 12.2917 2 10.5C2 8.5624 2.55584 6.9209 3.6436 5.75524Z" fill="#002749"/>
</svg>
