<svg width="24" height="24" viewBox="0 0 24 24" fill="none" xmlns="http://www.w3.org/2000/svg">
<path d="M10.2001 3.59961C11.2667 2.8 12.7332 2.79988 13.7997 3.59961L22.0995 9.8252C22.5412 10.1565 22.6309 10.7828 22.2997 11.2246C21.9684 11.6663 21.3421 11.7559 20.9003 11.4248L19.9999 10.75V18C19.9999 19.1046 19.1045 20 17.9999 20H5.99991C4.89538 19.9999 3.99991 19.1045 3.99991 18V10.749L3.09952 11.4248C2.65774 11.756 2.03146 11.6663 1.7001 11.2246C1.36887 10.7828 1.45852 10.1565 1.9003 9.8252L10.2001 3.59961ZM11.9999 11.833C10.2499 11.8331 8.49991 13.4669 8.49991 15.3164C8.50005 17.0834 10.25 17.667 11.9999 17.667C13.7498 17.667 15.4998 17.0834 15.4999 15.3164C15.4999 13.5492 13.7499 11.833 11.9999 11.833ZM7.4794 10.667C6.75453 10.667 6.1669 11.2546 6.1669 11.9795C6.16707 12.7042 6.75463 13.292 7.4794 13.292C8.20407 13.2919 8.79174 12.7041 8.7919 11.9795C8.7919 11.2547 8.20417 10.6671 7.4794 10.667ZM16.5204 10.667C15.7957 10.6672 15.2079 11.2548 15.2079 11.9795C15.2081 12.7041 15.7958 13.2918 16.5204 13.292C17.2452 13.292 17.8328 12.7042 17.8329 11.9795C17.8329 11.2546 17.2453 10.667 16.5204 10.667ZM10.2206 8.33301C9.49601 8.33319 8.9083 8.9209 8.90811 9.64551C8.90811 10.3703 9.49589 10.9578 10.2206 10.958C10.9455 10.958 11.5331 10.3704 11.5331 9.64551C11.5329 8.92079 10.9454 8.33301 10.2206 8.33301ZM13.7792 8.33301C13.0544 8.33301 12.4669 8.92079 12.4667 9.64551C12.4667 10.3704 13.0543 10.958 13.7792 10.958C14.504 10.9579 15.0917 10.3703 15.0917 9.64551C15.0915 8.92084 14.5039 8.33309 13.7792 8.33301Z" fill="#002749"/>
</svg>
