<svg width="24" height="24" viewBox="0 0 24 24" fill="none" xmlns="http://www.w3.org/2000/svg">
<path fill-rule="evenodd" clip-rule="evenodd" d="M19 3C20.1046 3 21 3.89543 21 5V14.0947C20.2468 13.9297 19.4696 13.9532 18.668 14.168C17.3362 14.5249 16.3244 15.3021 15.6328 16.5C14.9411 17.698 14.774 18.963 15.1309 20.2949C15.1968 20.5409 15.2774 20.7758 15.3721 21H5C3.89543 21 3 20.1046 3 19V5C3 3.89543 3.89543 3 5 3H19ZM12 7C11.1716 7 10.5 7.67157 10.5 8.5V10.5H8.5C7.67157 10.5 7 11.1716 7 12C7 12.8284 7.67157 13.5 8.5 13.5H10.5V15.5C10.5 16.3284 11.1716 17 12 17C12.8284 17 13.5 16.3284 13.5 15.5V13.5H15.5C16.3284 13.5 17 12.8284 17 12C17 11.1716 16.3284 10.5 15.5 10.5H13.5V8.5C13.5 7.67157 12.8284 7 12 7Z" fill="#002749"/>
<path fill-rule="evenodd" clip-rule="evenodd" d="M20.9972 21.7333C20.9749 21.8552 20.9069 21.9313 20.793 21.9618C19.8923 22.2886 19.0348 22.2073 18.2204 21.7178C17.406 21.2284 16.9295 20.5203 16.791 19.5935C16.6143 18.433 16.9694 17.493 17.8563 16.7734C18.7433 16.0538 19.7203 15.8865 20.7874 16.2717C20.9051 16.3011 20.9735 16.3743 20.9926 16.4912C21.0117 16.6081 20.9777 16.7087 20.8905 16.7931C20.5522 17.0789 20.2814 17.4229 20.0781 17.8252C19.8747 18.2274 19.7741 18.66 19.7762 19.1231C19.7783 19.5862 19.8813 20.0161 20.0852 20.4129C20.2891 20.8097 20.5579 21.1525 20.8915 21.4413C20.9842 21.5141 21.0194 21.6114 20.9972 21.7333Z" fill="#002749"/>
</svg>
