<svg width="24" height="24" viewBox="0 0 24 24" fill="none" xmlns="http://www.w3.org/2000/svg">
<path fill-rule="evenodd" clip-rule="evenodd" d="M20 2C20.55 2 21.0204 2.19622 21.4121 2.58789C21.8038 2.97956 22 3.45 22 4V16C22 16.55 21.8038 17.0204 21.4121 17.4121C21.0204 17.8038 20.55 18 20 18H8C7.45 18 6.97956 17.8038 6.58789 17.4121C6.19622 17.0204 6 16.55 6 16V4C6 3.45 6.19622 2.97956 6.58789 2.58789C6.97956 2.19622 7.45 2 8 2H20ZM15.5498 9.8252C15.3832 9.82525 15.2504 9.89211 15.1504 10.0254L13.25 12.5L12.0996 11C11.9997 10.8668 11.8667 10.7999 11.7002 10.7998C11.5335 10.7998 11.3998 10.8667 11.2998 11L9.625 13.2002C9.49183 13.3667 9.47104 13.5414 9.5625 13.7246C9.65417 13.9079 9.80872 14 10.0254 14H17.9746C18.1913 14 18.3458 13.9079 18.4375 13.7246C18.529 13.5414 18.5082 13.3667 18.375 13.2002L15.9502 10.0254C15.8502 9.89206 15.7165 9.8252 15.5498 9.8252Z" fill="#002749"/>
<path d="M4 22C3.45 22 2.97917 21.8042 2.5875 21.4125C2.19583 21.0208 2 20.55 2 20V7C2 6.71667 2.09583 6.47917 2.2875 6.2875C2.47917 6.09583 2.71667 6 3 6C3.28333 6 3.52083 6.09583 3.7125 6.2875C3.90417 6.47917 4 6.71667 4 7V20H17C17.2833 20 17.5208 20.0958 17.7125 20.2875C17.9042 20.4792 18 20.7167 18 21C18 21.2833 17.9042 21.5208 17.7125 21.7125C17.5208 21.9042 17.2833 22 17 22H4Z" fill="#002749"/>
</svg>
