<svg width="24" height="24" viewBox="0 0 24 24" fill="none" xmlns="http://www.w3.org/2000/svg">
<path fill-rule="evenodd" clip-rule="evenodd" d="M2 12C2 6.47715 6.47715 2 12 2C17.5228 2 22 6.47715 22 12C22 17.5228 17.5228 22 12 22C6.47715 22 2 17.5228 2 12ZM11 9.5C10.4477 9.5 10 9.94772 10 10.5C10 11.0523 10.4477 11.5 11 11.5V16H10.5C9.94772 16 9.5 16.4477 9.5 17C9.5 17.5523 9.94772 18 10.5 18H13.5C14.0523 18 14.5 17.5523 14.5 17C14.5 16.4477 14.0523 16 13.5 16H13V10.5C13 9.94772 12.5523 9.5 12 9.5H11ZM11.7002 8.5C12.5286 8.5 13.2002 7.82843 13.2002 7C13.2002 6.17157 12.5286 5.5 11.7002 5.5C10.8718 5.5 10.2002 6.17157 10.2002 7C10.2002 7.82843 10.8718 8.5 11.7002 8.5Z" fill="#002749"/>
</svg>
