<svg width="24" height="24" viewBox="0 0 24 24" fill="none" xmlns="http://www.w3.org/2000/svg">
<path d="M21 3.5C21.5523 3.5 22 3.94772 22 4.5C22 5.05228 21.5523 5.5 21 5.5H8C7.44772 5.5 7 5.05228 7 4.5C7 3.94772 7.44772 3.5 8 3.5H21Z" fill="#002749"/>
<path d="M21 11C21.5523 11 22 11.4477 22 12C22 12.5523 21.5523 13 21 13H8C7.44772 13 7 12.5523 7 12C7 11.4477 7.44772 11 8 11H21Z" fill="#002749"/>
<path d="M21 18.5C21.5523 18.5 22 18.9477 22 19.5C22 20.0523 21.5523 20.5 21 20.5H8C7.44772 20.5 7 20.0523 7 19.5C7 18.9477 7.44772 18.5 8 18.5H21Z" fill="#002749"/>
<path d="M5 4.5C5 5.32843 4.32843 6 3.5 6C2.67157 6 2 5.32843 2 4.5C2 3.67157 2.67157 3 3.5 3C4.32843 3 5 3.67157 5 4.5Z" fill="#002749"/>
<path d="M5 12C5 12.8284 4.32843 13.5 3.5 13.5C2.67157 13.5 2 12.8284 2 12C2 11.1716 2.67157 10.5 3.5 10.5C4.32843 10.5 5 11.1716 5 12Z" fill="#002749"/>
<path d="M5 19.5C5 20.3284 4.32843 21 3.5 21C2.67157 21 2 20.3284 2 19.5C2 18.6716 2.67157 18 3.5 18C4.32843 18 5 18.6716 5 19.5Z" fill="#002749"/>
</svg>
