<svg width="24" height="24" viewBox="0 0 24 24" fill="none" xmlns="http://www.w3.org/2000/svg">
<path fill-rule="evenodd" clip-rule="evenodd" d="M21 4.5C21.5523 4.5 22 4.94772 22 5.5V18.5C22 19.0523 21.5523 19.5 21 19.5H3C2.44772 19.5 2 19.0523 2 18.5V5.5C2 4.94772 2.44772 4.5 3 4.5H21ZM19.7324 6.81934C19.3566 6.41492 18.7239 6.39187 18.3193 6.76758L12 12.6348L5.68066 6.76758C5.27605 6.39188 4.64341 6.41492 4.26758 6.81934C3.89187 7.22394 3.91492 7.85658 4.31934 8.23242L11.3193 14.7324C11.703 15.0887 12.297 15.0887 12.6807 14.7324L19.6807 8.23242C20.0851 7.85659 20.1081 7.22395 19.7324 6.81934Z" fill="#002749"/>
</svg>
