<svg width="24" height="24" viewBox="0 0 24 24" fill="none" xmlns="http://www.w3.org/2000/svg">
<path d="M11.2002 6.25C11.2002 7.49264 10.1928 8.5 8.9502 8.5C7.70755 8.5 6.7002 7.49264 6.7002 6.25C6.7002 5.00736 7.70755 4 8.9502 4C10.1928 4 11.2002 5.00736 11.2002 6.25Z" fill="#002749"/>
<path d="M6.5 10.25C6.5 11.4926 5.49264 12.5 4.25 12.5C3.00736 12.5 2 11.4926 2 10.25C2 9.00736 3.00736 8 4.25 8C5.49264 8 6.5 9.00736 6.5 10.25Z" fill="#002749"/>
<path d="M17.2998 6.25C17.2998 7.49264 16.2924 8.5 15.0498 8.5C13.8072 8.5 12.7998 7.49264 12.7998 6.25C12.7998 5.00736 13.8072 4 15.0498 4C16.2924 4 17.2998 5.00736 17.2998 6.25Z" fill="#002749"/>
<path d="M22 10.25C22 11.4926 20.9926 12.5 19.75 12.5C18.5074 12.5 17.5 11.4926 17.5 10.25C17.5 9.00736 18.5074 8 19.75 8C20.9926 8 22 9.00736 22 10.25Z" fill="#002749"/>
<path d="M18 15.9706C18 19 15 20 12 20C9 20 6 19 6 15.9706C6 12.8 9 10 12 10C15 10 18 12.9412 18 15.9706Z" fill="#002749"/>
</svg>
