<svg width="24" height="24" viewBox="0 0 24 24" fill="none" xmlns="http://www.w3.org/2000/svg">
<path d="M7.82545 20.4249C7.64221 20.6082 7.42961 20.7496 7.18809 20.8496C6.94642 20.9496 6.69172 20.9995 6.42505 20.9995H3.99989C3.71671 20.9994 3.47885 20.9038 3.28726 20.7122C3.09575 20.5206 3 20.2828 3 19.9996V17.5744C3.00003 17.3078 3.05057 17.0536 3.15054 16.8121C3.25053 16.5705 3.39194 16.358 3.57521 16.1747L13.3684 6.40088L17.6089 10.6414L7.82545 20.4249Z" fill="#002749"/>
<path d="M20.4249 4.99979C20.6249 5.18312 20.7711 5.40027 20.8627 5.65027C20.9543 5.90003 21.0001 6.14973 21.0001 6.3995C21.0001 6.66617 20.9544 6.92087 20.8627 7.16254C20.7711 7.40402 20.6255 7.62489 20.4256 7.82476L19.0231 9.22724L14.784 4.98805L16.2002 3.57452C16.4001 3.3913 16.6209 3.24982 16.8625 3.14985C17.1041 3.04985 17.3588 3 17.6255 3C17.892 3.00004 18.1504 3.04923 18.4003 3.14916C18.6503 3.24916 18.8667 3.40007 19.0501 3.60007L20.4249 4.99979Z" fill="#002749"/>
</svg>
