<svg width="24" height="24" viewBox="0 0 24 24" fill="none" xmlns="http://www.w3.org/2000/svg">
<path fill-rule="evenodd" clip-rule="evenodd" d="M19.3625 19.3625C18.2708 20.4542 16.9417 21 15.375 21C14.625 21 13.9083 20.8583 13.225 20.575C12.5417 20.2917 11.9333 19.8833 11.4 19.35L4.65 12.6C4.11667 12.0667 3.70833 11.4583 3.425 10.775C3.14167 10.0917 3 9.375 3 8.625C3 7.05833 3.54583 5.72917 4.6375 4.6375C5.72917 3.54583 7.05833 3 8.625 3C9.375 3 10.0917 3.14167 10.775 3.425C11.4583 3.70833 12.0667 4.11667 12.6 4.65L19.35 11.4C19.8833 11.9333 20.2917 12.5417 20.575 13.225C20.8583 13.9083 21 14.625 21 15.375C21 16.9417 20.4542 18.2708 19.3625 19.3625ZM13.975 18.725C14.425 18.9083 14.8917 19 15.375 19C16.375 19 17.2292 18.6458 17.9375 17.9375C18.6458 17.2292 19 16.375 19 15.375C19 14.8917 18.9083 14.425 18.725 13.975C18.5417 13.525 18.2833 13.1333 17.95 12.8L14.5625 9.4375L9.4375 14.5625L12.8 17.95C13.1333 18.2833 13.525 18.5417 13.975 18.725Z" fill="#002749"/>
</svg>
