<svg width="24" height="24" viewBox="0 0 24 24" fill="none" xmlns="http://www.w3.org/2000/svg">
<path d="M12 2C16.6944 2 20.5 5.80558 20.5 10.5C20.5 13.9521 18.5423 16.8164 16.6533 18.752C15.6973 19.7316 14.7252 20.5088 13.9531 21.0449C13.5676 21.3126 13.2226 21.5262 12.9463 21.6777C12.9463 21.6777 12.3904 22 12 22C11.6096 22 11.0537 21.6777 11.0537 21.6777C10.7774 21.5262 10.4324 21.3126 10.0469 21.0449C9.27483 20.5088 8.30272 19.7316 7.34668 18.752C5.45772 16.8164 3.5 13.9521 3.5 10.5C3.5 5.80558 7.30558 2 12 2ZM12 9.83301C10.25 9.83301 8.5 11.4669 8.5 13.3164C8.50015 15.0834 10.2501 15.667 12 15.667C13.7499 15.667 15.4998 15.0834 15.5 13.3164C15.5 11.5492 13.75 9.83301 12 9.83301ZM7.47949 8.66699C6.75462 8.66699 6.16699 9.25462 6.16699 9.97949C6.16717 10.7042 6.75473 11.292 7.47949 11.292C8.20411 11.2918 8.79182 10.7041 8.79199 9.97949C8.79199 9.25473 8.20422 8.66717 7.47949 8.66699ZM16.5205 8.66699C15.7958 8.66717 15.208 9.25473 15.208 9.97949C15.2082 10.7041 15.7959 11.2918 16.5205 11.292C17.2453 11.292 17.8328 10.7042 17.833 9.97949C17.833 9.25462 17.2454 8.66699 16.5205 8.66699ZM10.2207 6.33301C9.49605 6.33314 8.90838 6.92087 8.9082 7.64551C8.9082 8.3703 9.49594 8.95788 10.2207 8.95801C10.9456 8.95801 11.5332 8.37038 11.5332 7.64551C11.533 6.92078 10.9455 6.33301 10.2207 6.33301ZM13.7793 6.33301C13.0545 6.33301 12.467 6.92078 12.4668 7.64551C12.4668 8.37038 13.0544 8.95801 13.7793 8.95801C14.5041 8.95788 15.0918 8.3703 15.0918 7.64551C15.0916 6.92086 14.504 6.33314 13.7793 6.33301Z" fill="#002749"/>
</svg>
