<svg width="24" height="24" viewBox="0 0 24 24" fill="none" xmlns="http://www.w3.org/2000/svg">
<path d="M12 3C16.1421 3 19.5 6.35786 19.5 10.5C19.5 13.5709 17.7502 16.1963 15.9375 18.0537C15.0313 18.9822 14.1093 19.7192 13.3828 20.2236C13.0203 20.4754 12.7055 20.6694 12.4658 20.8008C12.4588 20.8046 12.4512 20.8085 12.4443 20.8125L12.4385 20.8164C12.4292 20.8215 12.4133 20.8301 12.3926 20.8408C12.3504 20.8627 12.2915 20.8916 12.2256 20.9199C12.1579 20.949 12.094 20.9723 12.041 20.9873C12.0231 20.9924 12.0092 20.9941 12 20.9961C11.9908 20.9941 11.9769 20.9924 11.959 20.9873C11.906 20.9723 11.8421 20.949 11.7744 20.9199C11.7085 20.8916 11.6496 20.8627 11.6074 20.8408C11.5867 20.8301 11.5708 20.8215 11.5615 20.8164C11.5585 20.8148 11.5562 20.8134 11.5547 20.8125H11.5557C11.5488 20.8085 11.5412 20.8046 11.5342 20.8008C11.2945 20.6694 10.9797 20.4754 10.6172 20.2236C9.89069 19.7192 8.9687 18.9822 8.0625 18.0537C6.2498 16.1963 4.5 13.5709 4.5 10.5C4.5 6.35786 7.85786 3 12 3Z" fill="white" stroke="url(#paint0_linear_42_2427)" stroke-width="2" stroke-linejoin="round"/>
<path d="M9.30414 9.0006C9.83433 9.0006 10.2641 8.57079 10.2641 8.0406C10.2641 7.51041 9.83433 7.0806 9.30414 7.0806C8.77395 7.0806 8.34414 7.51041 8.34414 8.0406C8.34414 8.57079 8.77395 9.0006 9.30414 9.0006Z" fill="#000007"/>
<path d="M14.7027 8.99764C15.2329 8.99764 15.6627 8.56783 15.6627 8.03764C15.6627 7.50744 15.2329 7.07764 14.7027 7.07764C14.1725 7.07764 13.7427 7.50744 13.7427 8.03764C13.7427 8.56783 14.1725 8.99764 14.7027 8.99764Z" fill="#000007"/>
<path d="M15.9086 13.2228L15.4108 12.6776C15.396 12.6628 15.3812 12.6628 15.3634 12.6776C14.6404 13.3147 13.5293 13.2613 12.8745 12.5473C12.5901 12.2391 12.436 11.848 12.4123 11.4421C12.7797 11.1962 13.156 10.6984 13.156 10.2362C13.156 9.59912 12.6404 9.52208 12.0034 9.52208C11.3664 9.52208 10.8508 9.59912 10.8508 10.2362C10.8508 10.6984 11.2271 11.1962 11.5945 11.4421C11.5708 11.848 11.4108 12.2332 11.1323 12.5473C10.8093 12.8999 10.3708 13.1013 9.89673 13.1221C9.42859 13.1458 8.99007 12.9828 8.63747 12.6776C8.62266 12.6628 8.60784 12.6687 8.59007 12.6776L8.09229 13.2228C8.07747 13.2376 8.0834 13.2613 8.09229 13.2702C8.56933 13.6939 9.17377 13.9221 9.81377 13.9221H9.82859C10.3738 13.9221 10.919 13.7443 11.3575 13.4154C11.6182 13.2169 11.8345 12.9769 12.0034 12.7162C12.0893 12.8465 12.1723 12.9621 12.279 13.0776C12.7856 13.6317 13.4849 13.9162 14.1841 13.9162C14.7975 13.9162 15.4138 13.6999 15.9056 13.2643C15.9204 13.2554 15.9204 13.2347 15.9056 13.2258L15.9086 13.2228Z" fill="#000007"/>
<defs>
<linearGradient id="paint0_linear_42_2427" x1="3.49613" y1="12.0023" x2="20.5" y2="12.0023" gradientUnits="userSpaceOnUse">
<stop stop-color="#EDB1CB"/>
<stop offset="0.13" stop-color="#F6CCAF"/>
<stop offset="0.25" stop-color="#F8E292"/>
<stop offset="0.38" stop-color="#BFD795"/>
<stop offset="0.5" stop-color="#A1CEA9"/>
<stop offset="0.63" stop-color="#92CABB"/>
<stop offset="0.75" stop-color="#7DC6E8"/>
<stop offset="0.87" stop-color="#92B2D9"/>
<stop offset="1" stop-color="#A196C3"/>
</linearGradient>
</defs>
</svg>
