<svg width="24" height="24" viewBox="0 0 24 24" fill="none" xmlns="http://www.w3.org/2000/svg">
<path fill-rule="evenodd" clip-rule="evenodd" d="M6.5 2C8.70914 2 10.5 3.79086 10.5 6C10.5 6.55419 10.3864 7.08165 10.1826 7.56152L12.5 9.87891L18.9395 3.43945C19.5252 2.85367 20.4748 2.85367 21.0605 3.43945C21.6463 4.02524 21.6463 4.97476 21.0605 5.56055L14.6211 12L21.0605 18.4395C21.6463 19.0252 21.6463 19.9748 21.0605 20.5605C20.4748 21.1463 19.5252 21.1463 18.9395 20.5605L12.5 14.1211L10.1826 16.4375C10.3866 16.9176 10.5 17.4455 10.5 18C10.5 20.2091 8.70914 22 6.5 22C4.29086 22 2.5 20.2091 2.5 18C2.5 15.7909 4.29086 14 6.5 14C7.05405 14 7.58174 14.1128 8.06152 14.3164L10.3789 12L8.06152 9.68262C7.58165 9.88635 7.05419 10 6.5 10C4.29086 10 2.5 8.20914 2.5 6C2.5 3.79086 4.29086 2 6.5 2ZM6.5 16C5.39543 16 4.5 16.8954 4.5 18C4.5 19.1046 5.39543 20 6.5 20C7.60457 20 8.5 19.1046 8.5 18C8.5 16.8954 7.60457 16 6.5 16ZM6.5 4C5.39543 4 4.5 4.89543 4.5 6C4.5 7.10457 5.39543 8 6.5 8C7.60457 8 8.5 7.10457 8.5 6C8.5 4.89543 7.60457 4 6.5 4Z" fill="#002749"/>
</svg>
