<svg width="24" height="24" viewBox="0 0 24 24" fill="none" xmlns="http://www.w3.org/2000/svg">
<path fill-rule="evenodd" clip-rule="evenodd" d="M4.0001 10.0015C4.0001 6.68776 6.68639 4.00146 10.0001 4.00146C13.3138 4.00146 16.0001 6.68776 16.0001 10.0015C16.0001 13.3152 13.3138 16.0015 10.0001 16.0015C6.68639 16.0015 4.0001 13.3152 4.0001 10.0015ZM10.0001 2.00146C5.58182 2.00146 2.0001 5.58319 2.0001 10.0015C2.0001 14.4197 5.58182 18.0015 10.0001 18.0015C11.8488 18.0015 13.551 17.3744 14.9057 16.3213L20.2929 21.7086C20.6835 22.0991 21.3166 22.0991 21.7072 21.7086C22.0977 21.318 22.0977 20.6849 21.7072 20.2944L16.3199 14.9071C17.373 13.5524 18.0001 11.8502 18.0001 10.0015C18.0001 5.58319 14.4184 2.00146 10.0001 2.00146Z" fill="#002749"/>
</svg>
