<svg width="24" height="24" viewBox="0 0 24 24" fill="none" xmlns="http://www.w3.org/2000/svg">
<path d="M3.9 11.1752C3.71667 10.9752 3.625 10.7377 3.625 10.4627C3.625 10.1877 3.71667 9.9502 3.9 9.7502L6.7 6.9502L5.625 5.8752L5.325 6.1752C5.125 6.3752 4.8875 6.4752 4.6125 6.4752C4.3375 6.4752 4.1 6.3752 3.9 6.1752C3.71667 5.9752 3.625 5.7377 3.625 5.4627C3.625 5.1877 3.71667 4.95853 3.9 4.7752L5.9 2.7752C6.1 2.5752 6.3375 2.4752 6.6125 2.4752C6.8875 2.4752 7.125 2.5752 7.325 2.7752C7.525 2.95853 7.625 3.19186 7.625 3.4752C7.625 3.75853 7.525 3.99186 7.325 4.1752L7.025 4.4752L8.1 5.5502L10.9 2.7502C11.1 2.5502 11.3375 2.4502 11.6125 2.4502C11.8875 2.4502 12.125 2.5502 12.325 2.7502C12.525 2.9502 12.625 3.1877 12.625 3.4627C12.625 3.7377 12.525 3.9752 12.325 4.1752L11.65 4.8252L13.2 6.3752L10.375 9.1752C10.1917 9.3752 10.1 9.6127 10.1 9.8877C10.1 10.1627 10.1917 10.4002 10.375 10.6002C10.575 10.8002 10.8125 10.9002 11.0875 10.9002C11.3625 10.9002 11.6 10.8002 11.8 10.6002L14.6 7.7752L16.125 9.2752L13.3 12.1002C13.1 12.3002 13 12.5377 13 12.8127C13 13.0877 13.1 13.3252 13.3 13.5252C13.4833 13.7085 13.7125 13.796 13.9875 13.7877C14.2625 13.7794 14.5 13.6835 14.7 13.5002L17.5 10.6752L19.025 12.2002C19.4083 12.5835 19.6 13.0544 19.6 13.6127C19.6 14.171 19.4083 14.6419 19.025 15.0252L18.325 15.7502L22.2 19.6002C22.3667 19.7669 22.4083 19.9502 22.325 20.1502C22.2417 20.3502 22.0833 20.4502 21.85 20.4502H20.825C20.625 20.4502 20.4292 20.4085 20.2375 20.3252C20.0458 20.2419 19.8833 20.1335 19.75 20.0002L16.9 17.1502L16.2 17.8752C15.8167 18.2585 15.3458 18.4502 14.7875 18.4502C14.2292 18.4502 13.7583 18.2585 13.375 17.8752L6 10.5002L5.325 11.1752C5.125 11.3585 4.8875 11.4502 4.6125 11.4502C4.3375 11.4502 4.1 11.3585 3.9 11.1752Z" fill="#002749"/>
</svg>
