<svg width="24" height="24" viewBox="0 0 24 24" fill="none" xmlns="http://www.w3.org/2000/svg">
<path fill-rule="evenodd" clip-rule="evenodd" d="M8.65356 13.7315C8.7116 13.5914 8.84834 13.5 9.00001 13.5L15 13.5C15.1517 13.5 15.2884 13.5914 15.3465 13.7315C15.4045 13.8716 15.3724 14.0329 15.2652 14.1402L12.2652 17.1402C12.1187 17.2866 11.8813 17.2866 11.7348 17.1402L8.73485 14.1402C8.6276 14.0329 8.59551 13.8716 8.65356 13.7315Z" fill="#002749"/>
<path fill-rule="evenodd" clip-rule="evenodd" d="M15.3465 10.2685C15.2884 10.4086 15.1517 10.5 15 10.5L9.00001 10.5C8.84834 10.5 8.7116 10.4086 8.65356 10.2685C8.59551 10.1284 8.6276 9.96708 8.73485 9.85983L11.7348 6.85984C11.8813 6.71339 12.1187 6.71339 12.2652 6.85984L15.2652 9.85984C15.3724 9.96708 15.4045 10.1284 15.3465 10.2685Z" fill="#002749"/>
</svg>
