<svg width="24" height="24" viewBox="0 0 24 24" fill="none" xmlns="http://www.w3.org/2000/svg">
<path fill-rule="evenodd" clip-rule="evenodd" d="M11.9998 2C12.3798 2 12.7275 2.21517 12.8963 2.55566L15.5984 8.01074L21.6434 8.88574C22.0204 8.94043 22.3335 9.20496 22.451 9.56738C22.5684 9.92983 22.4694 10.3274 22.1961 10.5928L17.824 14.8369L18.8563 20.8301C18.9208 21.205 18.7673 21.5846 18.4598 21.8086C18.1522 22.0325 17.744 22.0622 17.407 21.8857L11.9998 19.0537L6.59259 21.8857C6.25559 22.0622 5.84739 22.0325 5.53985 21.8086C5.23229 21.5846 5.07881 21.205 5.14337 20.8301L6.17559 14.8369L1.80352 10.5928C1.53018 10.3274 1.43127 9.92983 1.54864 9.56738C1.66612 9.20496 1.97923 8.94043 2.35626 8.88574L8.40118 8.01074L11.1033 2.55566C11.2721 2.21517 11.6198 2 11.9998 2Z" fill="#002749"/>
</svg>
