<svg width="24" height="24" viewBox="0 0 24 24" fill="none" xmlns="http://www.w3.org/2000/svg">
<path d="M12.0002 2C12.3801 2.00014 12.728 2.21528 12.8967 2.55566L15.5988 8.01074L21.6437 8.88574C22.0206 8.94055 22.3339 9.20508 22.4514 9.56738C22.5686 9.92971 22.4696 10.3274 22.1965 10.5928L17.8244 14.8369L18.8566 20.8301C18.9211 21.2049 18.7675 21.5846 18.4601 21.8086C18.1527 22.0324 17.7444 22.0621 17.4074 21.8857L12.0002 19.0537L6.59296 21.8857C6.25606 22.0622 5.84774 22.0323 5.54023 21.8086C5.23267 21.5846 5.07918 21.205 5.14374 20.8301L6.17597 14.8369L1.8039 10.5928C1.53056 10.3274 1.43165 9.92983 1.54902 9.56738C1.66653 9.20502 1.97965 8.94043 2.35663 8.88574L8.40156 8.01074L11.1037 2.55566C11.2725 2.21525 11.6202 2 12.0002 2ZM12.0002 12C10.5002 12 9.00019 13.4001 9.00019 14.9854C9.00023 16.5 10.5002 17 12.0002 17C13.5001 17 15.0002 16.5 15.0002 14.9854C15.0002 13.4707 13.5001 12.0001 12.0002 12ZM8.12519 11C7.50387 11 7.00019 11.5037 7.00019 12.125C7.00019 12.7463 7.50387 13.25 8.12519 13.25C8.74643 13.2499 9.25019 12.7463 9.25019 12.125C9.25019 11.5037 8.74643 11.0001 8.12519 11ZM15.8752 11C15.2539 11 14.7502 11.5037 14.7502 12.125C14.7502 12.7463 15.2539 13.25 15.8752 13.25C16.4964 13.2499 17.0002 12.7463 17.0002 12.125C17.0002 11.5037 16.4964 11.0001 15.8752 11ZM10.4748 9C9.85362 9.00016 9.3498 9.50378 9.3498 10.125C9.3498 10.7462 9.85362 11.2498 10.4748 11.25C11.0961 11.25 11.5998 10.7463 11.5998 10.125C11.5998 9.50368 11.0961 9 10.4748 9ZM13.5246 9C12.9034 9.00016 12.3996 9.50378 12.3996 10.125C12.3996 10.7462 12.9034 11.2498 13.5246 11.25C14.1459 11.25 14.6496 10.7463 14.6496 10.125C14.6496 9.50368 14.1459 9 13.5246 9Z" fill="#002749"/>
</svg>
