<svg width="24" height="24" viewBox="0 0 24 24" fill="none" xmlns="http://www.w3.org/2000/svg">
<path fill-rule="evenodd" clip-rule="evenodd" d="M4.07531 3.24897C3.65083 3.31807 3.31807 3.65083 3.24897 4.07531L2.01154 11.6767C1.96213 11.9802 2.05511 12.2896 2.26365 12.5156L10.7207 21.6797C10.9052 21.8797 11.1634 21.9958 11.4355 22.0013C11.7076 22.0067 11.9702 21.901 12.1626 21.7086L21.7086 12.1626C21.901 11.9702 22.0067 11.7076 22.0013 11.4355C21.9958 11.1634 21.8797 10.9052 21.6797 10.7207L12.5156 2.26365C12.2896 2.05511 11.9802 1.96213 11.6767 2.01154L4.07531 3.24897ZM9.18573 8.87376C9.77152 8.28798 9.77152 7.33823 9.18573 6.75244C8.59995 6.16666 7.6502 6.16666 7.06441 6.75244C6.47863 7.33823 6.47863 8.28798 7.06441 8.87376C7.6502 9.45955 8.59995 9.45955 9.18573 8.87376Z" fill="#002749"/>
</svg>
