<svg width="24" height="24" viewBox="0 0 24 24" fill="none" xmlns="http://www.w3.org/2000/svg">
<g clip-path="url(#clip0_34_2579)">
<path d="M16.6142 4.35759C16.4973 5.02046 15.8652 5.46307 15.2023 5.34619C14.5394 5.22931 14.0968 4.5972 14.2137 3.93432C14.3306 3.27145 14.9627 2.82884 15.6256 2.94572C16.2885 3.06261 16.7311 3.69472 16.6142 4.35759Z" fill="#002749"/>
<path d="M13.7307 6.04924C13.6138 6.71212 12.9817 7.15473 12.3188 7.03785C11.6559 6.92096 11.2133 6.28885 11.3302 5.62598C11.4471 4.96311 12.0792 4.52049 12.7421 4.63738C13.405 4.75426 13.8476 5.38637 13.7307 6.04924Z" fill="#002749"/>
<path d="M19.8679 4.93132C19.7511 5.59419 19.1189 6.0368 18.4561 5.91992C17.7932 5.80304 17.3506 5.17092 17.4675 4.50805C17.5844 3.84518 18.2165 3.40257 18.8793 3.51945C19.5422 3.63633 19.9848 4.26845 19.8679 4.93132Z" fill="#002749"/>
<path d="M21.999 7.50717C21.8821 8.17004 21.25 8.61265 20.5871 8.49577C19.9242 8.37888 19.4816 7.74677 19.5985 7.0839C19.7154 6.42103 20.3475 5.97842 21.0104 6.0953C21.6732 6.21218 22.1159 6.84429 21.999 7.50717Z" fill="#002749"/>
<path d="M19.3271 10.1825C19.0422 11.7985 17.3478 12.0498 15.7475 11.7676C14.1472 11.4854 12.6409 10.6698 12.9259 9.05379C13.2241 7.36248 15.0878 6.15103 16.6881 6.43321C18.2884 6.71539 19.6121 8.5665 19.3271 10.1825Z" fill="#002749"/>
<path d="M6.53254 13.5082C6.64942 14.1711 6.20681 14.8032 5.54394 14.9201C4.88107 15.037 4.24895 14.5943 4.13207 13.9315C4.01519 13.2686 4.4578 12.6365 5.12067 12.5196C5.78354 12.4027 6.41566 12.8453 6.53254 13.5082Z" fill="#002749"/>
<path d="M4.40152 16.0841C4.5184 16.7469 4.07579 17.379 3.41292 17.4959C2.75005 17.6128 2.11793 17.1702 2.00105 16.5073C1.88417 15.8445 2.32678 15.2123 2.98965 15.0955C3.65252 14.9786 4.28464 15.4212 4.40152 16.0841Z" fill="#002749"/>
<path d="M9.7863 12.9345C9.90318 13.5974 9.46057 14.2295 8.7977 14.3464C8.13483 14.4632 7.50271 14.0206 7.38583 13.3578C7.26895 12.6949 7.71156 12.0628 8.37443 11.9459C9.0373 11.829 9.66942 12.2716 9.7863 12.9345Z" fill="#002749"/>
<path d="M12.6698 14.6261C12.7867 15.289 12.3441 15.9211 11.6812 16.038C11.0183 16.1549 10.3862 15.7123 10.2693 15.0494C10.1524 14.3865 10.5951 13.7544 11.2579 13.6375C11.9208 13.5207 12.5529 13.9633 12.6698 14.6261Z" fill="#002749"/>
<path d="M11.0741 18.054C11.3591 19.67 9.85282 20.4856 8.2525 20.7677C6.65219 21.0499 4.95782 20.7987 4.67287 19.1827C4.37465 17.4914 5.7116 15.7155 7.31191 15.4334C8.91222 15.1512 10.7892 16.4379 11.0741 18.054Z" fill="#002749"/>
</g>
<defs>
<clipPath id="clip0_34_2579">
<rect width="24" height="24" fill="white"/>
</clipPath>
</defs>
</svg>
