<svg preserveAspectRatio="none" width="100%" height="100%" overflow="visible" style="display: block;" viewBox="0 0 20 18" fill="none" xmlns="http://www.w3.org/2000/svg">
<path id="icon" fill-rule="evenodd" clip-rule="evenodd" d="M1.6436 1.75524C2.73783 0.58266 4.26989 0 5.99942 0C7.46953 0 8.61443 0.450699 9.45673 1.29281C9.66051 1.49654 9.84048 1.7172 10 1.95051C10.1595 1.7172 10.3395 1.49654 10.5433 1.29281C11.3856 0.450699 12.5305 0 14.0006 0C15.7301 0 17.2622 0.58266 18.3564 1.75524C19.4442 2.9209 20 4.5624 20 6.5C20 8.29165 19.1262 10.5018 17.5407 12.5497C15.9374 14.6206 13.5488 16.6047 10.3846 17.9231C10.1385 18.0256 9.86154 18.0256 9.61539 17.9231C6.45116 16.6047 4.06259 14.6206 2.45928 12.5497C0.873847 10.5018 0 8.29165 0 6.5C0 4.5624 0.555835 2.9209 1.6436 1.75524Z" fill="var(--fill-0, #0066DD)"/>
</svg>
