<svg preserveAspectRatio="xMidYMid meet" overflow="visible" style="display: block;" viewBox="0 0 416.54 104.705" fill="none" xmlns="http://www.w3.org/2000/svg">
<g id="logo">
<path d="M310.264 2.832C311.204 2.71992 312.157 2.81901 313.053 3.12204C313.95 3.42506 314.768 3.92438 315.447 4.58359C316.126 5.24279 316.649 6.04526 316.979 6.93248C317.309 7.81969 317.436 8.76928 317.352 9.712V22.072H325.752C326.674 21.9339 327.616 22.003 328.509 22.2744C329.401 22.5457 330.222 23.0124 330.911 23.6406C331.601 24.2688 332.142 25.0428 332.495 25.9061C332.848 26.7695 333.004 27.7007 332.952 28.632C333.005 29.564 332.85 30.496 332.497 31.3604C332.145 32.2248 331.604 32.9997 330.915 33.6289C330.225 34.258 329.404 34.7254 328.511 34.9972C327.618 35.269 326.675 35.3383 325.752 35.2H317.352V63.16C317.352 67.512 318.952 67.512 319.728 67.512C321.024 67.4961 322.288 67.1028 323.364 66.38L323.528 66.288C324.56 65.7023 325.718 65.3731 326.904 65.328C328.897 65.4857 330.75 66.4117 332.072 67.9105C333.395 69.4092 334.083 71.3633 333.992 73.36C334.016 74.6071 333.665 75.8326 332.985 76.878C332.304 77.9234 331.326 78.7407 330.176 79.224C326.862 80.7072 323.262 81.4445 319.632 81.384C317.367 81.5399 315.093 81.2478 312.94 80.5244C310.788 79.801 308.799 78.6605 307.088 77.168C305.568 75.5127 304.4 73.5655 303.656 71.4448C302.912 69.3241 302.607 67.0742 302.76 64.832V35.208H299.864C298.937 35.3398 297.992 35.2664 297.096 34.993C296.2 34.7196 295.375 34.2528 294.679 33.6256C293.983 32.9985 293.433 32.2262 293.068 31.3633C292.704 30.5005 292.533 29.5681 292.568 28.632C292.535 27.6972 292.708 26.7666 293.074 25.9058C293.439 25.0449 293.99 24.2746 294.685 23.6493C295.381 23.0239 296.205 22.5586 297.1 22.286C297.994 22.0135 298.938 21.9405 299.864 22.072H302.76V9.712C302.703 8.73877 302.863 7.76501 303.229 6.86146C303.595 5.95792 304.158 5.14729 304.877 4.48845C305.595 3.82961 306.452 3.3391 307.384 3.05258C308.315 2.76606 309.299 2.69071 310.264 2.832Z" fill="var(--fill-0, #5291DA)"/>
<path d="M68.208 71.792C68.32 69.44 68.096 66.992 68.096 64.848C68.096 54.768 67.984 43.568 67.984 33.488C67.984 25.2 67.76 16.912 67.76 8.624C67.7366 7.68727 67.6618 6.75253 67.536 5.824C67.4028 4.99143 67.2157 4.16837 66.976 3.36C66.6601 2.6417 66.203 1.99421 65.632 1.456C64.9247 0.784082 64.0231 0.352882 63.056 0.223999C62.0914 0.0849837 61.1186 0.0101535 60.144 0C55.344 0.112 50.624 7.84 48.496 11.312C43.568 19.488 40.992 23.408 37.856 28.224C36.9033 29.9082 35.8171 31.5133 34.608 33.024C31.92 29.328 29.008 23.952 25.088 17.68C22.8711 13.8353 20.4017 10.1419 17.696 6.624C15.792 4.624 13.776 0.799999 10.752 0.223999C9.78689 0.0894062 8.81435 0.0145979 7.84 0C6.57044 0.000789292 5.32536 0.349405 4.23999 1.008C3.20407 1.64774 2.38457 2.58433 1.888 3.696C1.2649 5.07049 0.92222 6.55546 0.880005 8.064C0.432005 14.336 0.208008 20.72 0.208008 27.216V42.224L0.0960083 59.472L0 68.224C0 70.224 0.111999 72.256 0.223999 74.272C0.329314 75.3877 0.661879 76.47 1.2012 77.4524C1.74053 78.4347 2.47521 79.2963 3.36002 79.984C4.45817 80.7082 5.73323 81.1189 7.04764 81.1716C8.36205 81.2243 9.66591 80.9171 10.8185 80.2832C11.9712 79.6492 12.9288 78.7126 13.5882 77.5743C14.2475 76.436 14.5836 75.1393 14.56 73.824C15.008 73.712 15.12 26.672 15.232 26.112C18.934 33.0008 23.2843 39.521 28.224 45.584C29.568 47.264 32.032 50.064 34.496 49.84C38.752 49.504 41.328 46.48 52.976 27.104C53.1174 29.0045 53.1548 30.9114 53.088 32.816C53.2 38.08 53.2 37.616 53.2 42.448L53.312 59.584V68.32C53.424 72.24 52.864 77.52 57.008 80.08C58.7814 80.9659 60.8301 81.1266 62.72 80.528C63.7993 80.4469 64.8222 80.0141 65.632 79.296C66.2626 78.7483 66.7605 78.0644 67.088 77.296C67.7408 75.5295 68.1186 73.6732 68.208 71.792ZM131.376 29.904C130.809 28.8506 129.901 28.0213 128.8 27.552C127.928 27.1547 127.03 26.8179 126.112 26.544C125.137 26.399 124.142 26.4756 123.2 26.768C122.478 26.9674 121.821 27.3537 121.296 27.888C120.644 28.5497 120.045 29.2612 119.504 30.016C119.28 30.576 118.832 31.024 118.608 31.584C117.221 34.039 115.987 36.5772 114.912 39.184C113.904 41.312 112.912 43.552 111.776 45.904L105.952 58.224C103.04 51.952 99.904 45.12 97.104 39.184C95.9745 35.7261 94.2291 32.5009 91.952 29.664C91.2919 28.8279 90.4411 28.1622 89.4709 27.7225C88.5006 27.2828 87.4391 27.082 86.3753 27.1368C85.3115 27.1917 84.2763 27.5006 83.3564 28.0377C82.4365 28.5748 81.6586 29.3245 81.088 30.224C80.3278 31.8985 80.0508 33.7521 80.2882 35.5757C80.5257 37.3992 81.2683 39.1201 82.432 40.544C87.232 49.392 91.952 60.816 95.872 70.224C96.432 71.568 97.216 73.36 98 75.024L89.824 92.72C89.6 92.72 89.488 93.056 89.264 93.616C89.04 94.064 88.928 94.848 88.592 95.616C88.48 96.416 88.368 97.184 88.256 98.08C88.2313 98.96 88.3836 99.836 88.704 100.656C89.1649 101.605 89.9083 102.387 90.832 102.896C91.5468 103.529 92.3803 104.013 93.284 104.321C94.1877 104.628 95.1436 104.753 96.096 104.688C97.2558 104.474 98.352 104 99.3025 103.301C100.253 102.603 101.033 101.699 101.584 100.656C101.913 99.9243 102.287 99.2136 102.704 98.528C104.704 94.832 106.4 91.136 108.304 87.216L113.68 75.68C114.352 74.56 114.8 73.328 115.36 72.208C117.36 67.84 119.616 63.36 121.968 58.544C124.32 53.616 126.224 49.472 128.24 44.88L128.464 44.32C129.136 42.976 130.816 39.168 131.376 37.712C132.005 36.3041 132.311 34.7734 132.272 33.232C132.369 32.0523 132.052 30.8756 131.376 29.904ZM223.216 7.616C222.179 6.80586 221.094 6.05788 219.968 5.376C218.733 4.66229 217.417 4.09832 216.048 3.696C214.813 3.08384 213.491 2.66816 212.128 2.464C210.784 2.24 209.552 2.016 208.096 1.792C206.304 1.568 204.496 1.344 202.72 1.232C201.04 1.12 199.248 1.008 197.232 0.783997C192.299 0.528033 187.355 0.602866 182.432 1.008H182.208C180.33 0.785335 178.44 1.30812 176.944 2.464C176.41 2.96614 175.99 3.57728 175.712 4.256C175.488 5.056 175.264 5.936 175.04 6.72C174.866 7.64488 174.754 8.58027 174.704 9.52V71.456C174.708 73.3553 175.134 75.2299 175.952 76.944C176.326 77.8048 176.933 78.544 177.705 79.0783C178.477 79.6125 179.383 79.9207 180.32 79.968C182.431 80.3761 184.616 80.142 186.592 79.296C189.504 77.616 189.616 74.256 190.064 71.456V48.256C191.069 48.1628 192.079 48.1254 193.088 48.144C195.888 48.032 197.68 47.92 200.816 47.696C207.156 47.4666 213.409 46.1403 219.296 43.776C222.603 42.5466 225.478 40.3769 227.568 37.534C229.657 34.6911 230.87 31.2992 231.056 27.776C231.312 24.0473 230.744 20.308 229.392 16.8237C228.039 13.3395 225.936 10.1958 223.232 7.616H223.216ZM216.496 26.096C215.696 34.496 204.176 35.616 197.008 35.728L190.064 35.84C190.064 33.264 190.064 30.576 190.176 27.888C190.176 22.96 190.176 18.928 190.064 14.336C191.111 14.3036 192.158 14.341 193.2 14.448C194.88 14.56 200.256 14.672 201.936 14.784C209.232 15.68 216.944 18.816 216.496 26.096ZM273.296 64.496C268.673 66.2331 263.771 67.1115 258.832 67.088C253.344 66.624 246.736 64.288 247.632 58.224C256.256 58.448 261.296 58.784 268.464 58.448C276.64 58.112 279.776 58 281.664 52.624C282.613 48.807 282.418 44.7951 281.104 41.088C278.958 35.9179 274.85 31.8097 269.68 29.664C266.011 27.9774 262.004 27.1512 257.967 27.2482C253.93 27.3453 249.968 28.3631 246.384 30.224C243.343 32.0594 240.749 34.55 238.793 37.5144C236.836 40.4787 235.565 43.8423 235.072 47.36C233.388 54.9372 234.419 62.8651 237.984 69.76C242.144 76.384 250.208 79.072 258.272 79.424C263.788 79.6804 269.293 78.7246 274.4 76.624C277.312 75.376 281.344 72.576 281.344 68.88C281.344 63.824 276.752 63.504 273.28 64.512L273.296 64.496ZM268.496 42.768C269.16 43.409 269.687 44.1772 270.047 45.0267C270.407 45.8761 270.593 46.7894 270.592 47.712H248.64C247.408 47.712 250.544 42.912 250.992 42.448C252.387 40.7379 254.322 39.553 256.48 39.088C258.923 38.2845 261.566 38.324 263.984 39.2C265.717 40.0596 267.245 41.2819 268.464 42.784L268.496 42.768Z" fill="var(--fill-0, #5291DA)"/>
<path d="M388.526 17.1289C389.391 17.0461 390.263 17.1519 391.083 17.4391C391.903 17.7264 392.65 18.1881 393.274 18.7924C393.898 19.3968 394.383 20.1294 394.696 20.9395C395.009 21.7497 395.142 22.6182 395.086 23.4849V38.8609H410.059C410.91 38.7883 411.768 38.8998 412.572 39.1877C413.377 39.4757 414.111 39.9334 414.723 40.5298C415.336 41.1263 415.812 41.8474 416.122 42.6444C416.431 43.4414 416.565 44.2956 416.514 45.1489V45.2849C416.594 46.1506 416.486 47.0232 416.198 47.8435C415.91 48.6637 415.449 49.4123 414.846 50.0385C414.243 50.6647 413.512 51.1537 412.703 51.4723C411.894 51.7909 411.027 51.9316 410.158 51.8849H395.086V67.1609C395.146 68.0147 395.021 68.8712 394.719 69.6722C394.418 70.4733 393.948 71.2001 393.341 71.8031C392.733 72.4062 392.003 72.8714 391.2 73.1671C390.397 73.4629 389.54 73.5822 388.686 73.5169H388.618C387.745 73.5813 386.868 73.4549 386.048 73.1466C385.228 72.8382 384.486 72.3553 383.871 71.7312C383.256 71.1072 382.785 70.357 382.489 69.5326C382.194 68.7081 382.081 67.8293 382.158 66.9569V51.8849H367.495C366.634 51.938 365.773 51.8051 364.968 51.4953C364.164 51.1856 363.436 50.7062 362.834 50.0898C362.231 49.4734 361.769 48.7344 361.478 47.9233C361.187 47.1121 361.074 46.2477 361.146 45.3889V45.3209C361.082 44.4474 361.209 43.5704 361.517 42.7507C361.825 41.9309 362.308 41.188 362.932 40.5735C363.556 39.9589 364.306 39.4875 365.131 39.1917C365.955 38.896 366.834 38.7831 367.706 38.8609H382.171V23.5889C382.094 22.7303 382.205 21.8654 382.496 21.054C382.787 20.2426 383.251 19.5041 383.855 18.8896C384.46 18.2752 385.191 17.7995 385.997 17.4955C386.804 17.1915 387.667 17.0664 388.526 17.1289Z" fill="var(--fill-0, #5291DA)"/>
</g>
</svg>
