<svg width="1024" height="1024" viewBox="0 0 1024 1024" fill="none" xmlns="http://www.w3.org/2000/svg">
  <!-- background circle fill -->
  <rect width="1024" height="1024" rx="0" fill="#4DA6F4"/>
  <!-- background shape -->
  <g transform="translate(256, 123.6)">
    <path fill-rule="evenodd" clip-rule="evenodd" d="M255.917 0C157.889 0 68.3441 36.3167 0 96.2285C2.6895 95.9334 5.4445 95.6566 8.26758 95.4004H8.4668C65.9668 91.3004 141.568 97.7 181.268 106H181.467C227.467 116.5 252.967 146.201 269.867 165.801C273.567 170.201 277.367 174.4 281.467 178.5C295.267 191 308.368 196.7 353.768 199.4C362.267 200 371.067 200.1 380.467 200.2C421.767 200.9 468.567 201.601 491.367 237.801C507.267 262.901 503.667 313.101 495.167 351.601C489.967 374.8 482.467 396.6 473.367 414.5C462.767 435.5 450.468 450.501 436.768 459.101C395.244 485.399 323.756 505.001 296.465 511.918C302.24 533.912 316.897 558.936 360.667 595.7C360.867 595.9 361.067 596 361.267 596.2C403.994 637.139 431.317 669.687 452.461 723.471C567.26 655.987 644.317 531.193 644.317 388.4C644.317 173.893 470.424 0 255.917 0Z" fill="#9AC8FA"/>
  </g>
  <!-- cat body -->
  <g transform="translate(292, 446)">
    <path fill-rule="evenodd" clip-rule="evenodd" d="M168.912 0C162.012 16.5001 152.313 47.4998 151.213 54.7998C150.713 57.7998 148.212 67.6 134.112 68.5H131.312C126.713 68.4 122.213 68 117.713 67.5C106.113 66.3 91.7123 64.6998 78.6123 68.2998C51.5124 75.5998 38.1123 92.5003 33.6123 124.7C32.8121 130.5 27.8119 134.899 21.9121 134.899H18.6123C12.5124 134.899 8.21223 137.1 5.11228 141.8C-2.78762 153.7 -1.38741 179.5 8.31247 198.1C14.0125 208.9 23.1123 214.7 33.6123 221.5C47.5123 230.5 63.3121 240.6 74.4121 263.7C94.0119 304.4 59.8121 404.5 55.9121 415.8C55.688 416.419 55.4156 417.012 55.1025 417.575C105.146 441.069 161.021 454.2 219.963 454.2C283.239 454.2 342.98 439.066 395.768 412.224C395.441 411.678 395.154 411.103 394.913 410.5C375.213 360 350.612 330.499 309.312 290.899C239.013 231.8 235.913 197 232.913 163.3C232.513 159.1 232.213 154.999 231.713 150.899C228.413 124.1 215.313 94.0998 203.713 67.5C200.313 59.8001 197.112 52.5001 194.412 45.7002C187.812 29.5002 179.212 14.2 168.912 0Z" fill="#FCDE96"/>
  </g>
  <!-- cat eye -->
  <g transform="translate(371, 559)">
    <path d="M17.7 0C27.5 0 35.4 7.90001 35.4 17.7C35.4 27.5 27.5 35.4 17.7 35.4C7.89998 35.4 0 27.5 0 17.7C0 7.90001 7.89998 0 17.7 0Z" fill="#183346"/>
  </g>
  <!-- dog body -->
  <g transform="translate(123.6, 241.5)">
    <path fill-rule="evenodd" clip-rule="evenodd" d="M309.051 11.3699C270.851 3.36994 198.35 -2.63025 142.95 1.16975C79.0505 6.96978 59.7509 22.8702 38.251 59.0701C15.951 96.3702 -11.849 172.07 8.25098 216.57C18.9511 240.27 42.7508 259.47 67.3506 264.47C79.7506 266.87 97.6506 266.97 112.851 252.97C149.451 219.169 211.05 121.269 211.65 120.269C215.05 114.77 222.351 113.07 227.851 116.47C233.351 119.97 235.051 127.17 231.551 132.67C228.951 136.77 167.551 234.17 128.751 270.17C111.151 286.37 87.6508 292.57 62.5508 287.47C38.7879 282.599 16.3333 268.251 0.610352 248.728C0.205923 255.991 0 263.306 0 270.67C0 417.821 81.8329 545.857 202.472 611.758C216.103 572.514 233.031 502.624 221.55 478.87C213.35 461.77 201.65 454.269 189.25 446.269C177.05 438.369 164.45 430.27 155.85 413.87C144.05 391.27 139.45 355.57 153.95 333.67C159.85 324.47 169.55 318.269 180.35 316.769C187.75 281.27 207.65 259.67 240.75 250.67C258.15 245.87 275.65 247.77 288.45 249.17C291.35 249.47 294.85 249.87 297.55 249.97C299.65 241.67 303.65 228.569 307.85 216.47C318.95 184.17 324.15 178.97 328.45 176.47C331.85 174.47 335.95 174.17 339.65 175.47C352.85 180.57 374.65 217.469 384.55 241.769C387.15 248.269 390.25 255.37 393.65 262.97C405.25 289.569 419.75 322.67 423.45 352.97C423.95 357.47 424.35 361.77 424.75 366.07C424.896 367.708 425.042 369.34 425.197 370.971C452.561 363.951 519.528 345.234 556.95 321.57C576.55 309.17 594.851 273.569 604.851 228.769C609.308 208.709 611.535 189.095 611.555 172.475C599.995 178.038 582.942 182.163 562.351 174.87C559.051 173.67 555.851 172.17 552.851 170.27H552.65C543.05 163.97 533.851 152.37 531.351 130.97C530.518 122.812 530.587 114.585 531.614 106.462C525.399 106.247 519.106 106.155 512.851 106.07C503.551 105.97 494.051 105.769 485.051 105.269C437.751 102.469 418.251 96.3697 398.351 78.1697C393.551 73.5698 389.051 68.6695 384.751 63.4696C369.051 45.1696 347.451 20.17 309.051 11.3699Z" fill="white"/>
  </g>
  <!-- dog nose -->
  <g transform="translate(678, 349.5)">
    <path fill-rule="evenodd" clip-rule="evenodd" d="M0.840832 0C-0.168727 7.40902 -2.70583 33.2281 11.5332 42.4922C12.8332 43.2922 14.2334 43.9922 15.7334 44.4922C29.0408 49.3998 43.8607 46.9125 54.9004 38.2109C53.6839 32.5755 51.9959 27.9168 49.833 24.4922C40.0458 8.95509 21.9145 2.66041 0.840832 0Z" fill="#FCDE96"/>
  </g>
  <!-- dog eye -->
  <g transform="translate(441, 323)">
    <path d="M23.5 48C36.4787 48 47 37.2548 47 24C47 10.7452 36.4787 0 23.5 0C10.5213 0 0 10.7452 0 24C0 37.2548 10.5213 48 23.5 48Z" fill="#183346"/>
  </g>
  <!-- outline circle -->
  <g transform="translate(100, 100)">
    <path fill-rule="evenodd" clip-rule="evenodd" d="M412 0C639.541 0 824 184.459 824 412C824 639.541 639.541 824 412 824C184.459 824 0 639.541 0 412C0 391.098 1.55708 370.56 4.56055 350.494C-7.69969 298.018 18.4497 226.933 41.4502 188.3C61.0736 155.408 80.9898 137.585 113.731 127.782C188.77 49.0579 294.656 0 412 0ZM360.949 346.2C354.049 362.7 344.35 393.7 343.25 401C342.75 404 340.249 413.8 326.149 414.7H323.35C318.75 414.6 314.25 414.2 309.75 413.7C298.15 412.5 283.749 410.9 270.649 414.5C243.55 421.8 230.149 438.7 225.649 470.9C224.849 476.7 219.849 481.1 213.949 481.1H210.649C204.55 481.1 200.249 483.3 197.149 488C189.25 499.9 190.65 525.7 200.35 544.3C206.05 555.1 215.149 560.9 225.649 567.7C239.549 576.7 255.349 586.8 266.449 609.9C286.049 650.6 251.849 750.7 247.949 762C247.725 762.619 247.453 763.212 247.14 763.775C297.184 787.269 353.058 800.4 412 800.4C475.277 800.4 535.017 785.266 587.805 758.424C587.478 757.878 587.191 757.303 586.95 756.7C567.25 706.2 542.65 676.7 501.35 637.1C431.05 578 427.95 543.2 424.95 509.5C424.55 505.3 424.25 501.2 423.75 497.1C420.45 470.3 407.35 440.3 395.75 413.7C392.35 406 389.149 398.7 386.449 391.9C379.849 375.7 371.249 360.4 360.949 346.2ZM332.65 152.7C294.45 144.7 221.95 138.7 166.55 142.5C102.65 148.3 83.3505 164.2 61.8506 200.4C39.5506 237.7 11.7506 313.4 31.8506 357.9C42.5507 381.6 66.3504 400.8 90.9502 405.8C103.35 408.2 121.25 408.3 136.45 394.3C173.05 360.5 234.65 262.6 235.25 261.6C238.65 256.1 245.95 254.4 251.45 257.8C256.95 261.3 258.65 268.5 255.15 274C252.55 278.1 191.151 375.5 152.351 411.5C134.751 427.7 111.25 433.9 86.1504 428.8C62.3875 423.929 39.9329 409.581 24.21 390.059C23.8055 397.321 23.5996 404.637 23.5996 412C23.5996 559.151 105.432 687.187 226.071 753.088C239.702 713.844 256.63 643.954 245.149 620.2C236.949 603.1 225.25 595.6 212.85 587.6C200.65 579.7 188.049 571.6 179.449 555.2C167.649 532.6 163.05 496.9 177.55 475C183.45 465.8 193.149 459.6 203.949 458.1C211.349 422.6 231.25 401 264.35 392C281.75 387.2 299.25 389.1 312.05 390.5C314.95 390.8 318.449 391.2 321.149 391.3C323.249 383 327.249 369.9 331.449 357.8C342.549 325.5 347.75 320.3 352.05 317.8C355.45 315.8 359.55 315.5 363.25 316.8C376.45 321.9 398.249 358.8 408.149 383.1C410.749 389.6 413.85 396.7 417.25 404.3C428.85 430.9 443.35 464 447.05 494.3C447.55 498.8 447.95 503.1 448.35 507.4C448.496 509.038 448.642 510.67 448.797 512.302C476.16 505.281 543.127 486.564 580.55 462.9C600.15 450.5 618.45 414.9 628.45 370.1C632.908 350.039 635.135 330.425 635.154 313.806C623.595 319.368 606.541 323.493 585.95 316.2C582.65 315 579.45 313.501 576.45 311.601H576.25C566.65 305.301 557.45 293.7 554.95 272.3C554.118 264.142 554.187 255.915 555.214 247.792C548.998 247.578 542.706 247.485 536.45 247.4C527.15 247.3 517.65 247.1 508.65 246.6C461.35 243.8 441.85 237.7 421.95 219.5C417.15 214.9 412.651 210 408.351 204.8C392.651 186.5 371.05 161.5 332.65 152.7ZM412 23.5996C313.972 23.5996 224.427 59.9163 156.083 119.828C158.773 119.533 161.528 119.256 164.351 119H164.55C222.05 114.9 297.651 121.3 337.351 129.6H337.55C383.55 140.1 409.05 169.8 425.95 189.4C429.65 193.8 433.45 198 437.55 202.1C451.35 214.6 464.451 220.3 509.851 223C518.35 223.6 527.15 223.7 536.55 223.8C577.85 224.5 624.65 225.2 647.45 261.4C663.35 286.5 659.75 336.7 651.25 375.2C646.05 398.4 638.55 420.2 629.45 438.1C618.85 459.1 606.551 474.1 592.851 482.7C551.327 508.999 479.839 528.601 452.548 535.518C458.323 557.512 472.98 582.536 516.75 619.3C516.95 619.5 517.15 619.6 517.35 619.8C560.077 660.739 587.4 693.287 608.544 747.07C723.343 679.587 800.4 554.793 800.4 412C800.4 197.493 626.507 23.5996 412 23.5996ZM578.758 249.508C577.748 256.917 575.211 282.736 589.45 292C590.75 292.8 592.15 293.5 593.65 294C606.958 298.908 621.778 296.42 632.817 287.719C631.601 282.083 629.913 277.425 627.75 274C617.963 258.463 599.832 252.168 578.758 249.508Z" fill="#183346"/>
  </g>
</svg>
