<svg preserveAspectRatio="none" width="100%" height="100%" overflow="visible" style="display: block;" viewBox="0 0 16.6667 15" fill="none" xmlns="http://www.w3.org/2000/svg">
<path id="icon" fill-rule="evenodd" clip-rule="evenodd" d="M1.36966 1.4627C2.28152 0.48555 3.55824 0 4.99952 0C6.22461 0 7.17869 0.375582 7.88061 1.07734C8.05042 1.24711 8.2004 1.431 8.33334 1.62542C8.46627 1.431 8.61624 1.24711 8.78605 1.07734C9.48798 0.375582 10.4421 0 11.6672 0C13.1084 0 14.3851 0.48555 15.297 1.4627C16.2035 2.43408 16.6667 3.802 16.6667 5.41667C16.6667 6.90971 15.9385 8.75152 14.6173 10.4581C13.2812 12.1839 11.2907 13.8372 8.65385 14.9359C8.44872 15.0214 8.21795 15.0214 8.01282 14.9359C5.37597 13.8372 3.38549 12.1839 2.0494 10.4581C0.728206 8.75152 0 6.90971 0 5.41667C0 3.802 0.463196 2.43408 1.36966 1.4627Z" fill="var(--fill-0, white)"/>
</svg>
